<?xml version="1.0" encoding="iso-8859-1"?>
<!-- Generator: Adobe Illustrator 19.0.0, SVG Export Plug-In . SVG Version: 6.00 Build 0)  -->
<svg version="1.1" id="Capa_1" xmlns="http://www.w3.org/2000/svg" xmlns:xlink="http://www.w3.org/1999/xlink" x="0px" y="0px"
	 viewBox="0 0 512 512" style="enable-background:new 0 0 512 512;" xml:space="preserve">
<path style="fill:#F5B955;" d="M502.002,239.076v-51.044l-34.093-8.493c-4.482-22.442-13.311-43.312-25.573-61.701l18.103-30.115
	l-36.099-36.099l-30.115,18.103c-18.388-12.262-39.259-21.091-61.701-25.573l-8.493-34.093h-51.044l-8.493,34.093
	c-22.442,4.482-43.312,13.311-61.701,25.573L172.68,51.624l-36.099,36.099l18.103,30.115
	c-12.262,18.388-21.091,39.259-25.573,61.701l-34.093,8.493v51.044l34.093,8.493c4.482,22.442,13.311,43.312,25.573,61.701
	l-18.103,30.115l36.099,36.099l30.115-18.103c18.388,12.262,39.259,21.091,61.701,25.573l8.493,34.093h51.044l8.493-34.093
	c22.442-4.482,43.312-13.311,61.701-25.573l30.115,18.103l36.099-36.099l-18.103-30.115c12.262-18.388,21.091-39.259,25.573-61.701
	L502.002,239.076z"/>
<circle style="fill:#FFFFFF;" cx="298.506" cy="213.557" r="118.701"/>
<g>
	<path style="fill:#A5DC69;" d="M182.205,189.7l57.007-5.682l15.093-13.503c7.847-7.019,6.538-19.657-2.579-24.921l0,0
		c-3.82-2.205-6.517-5.938-7.412-10.257l-5.103-24.635C210.302,127.405,189.091,155.945,182.205,189.7z"/>
	<path style="fill:#A5DC69;" d="M333.966,100.237l-29.004,14.647c-11.578,5.848-12.494,22.031-1.65,29.148l0,0
		c4.75,3.117,7.61,8.416,7.61,14.097v25.889l33.229,60.985c14.242,0,26.944,8.965,31.716,22.384l8.037,22.604l8.053-3.232
		c15.822-20.168,25.257-45.585,25.257-73.206C417.213,160.345,382.205,115.315,333.966,100.237z"/>
</g>
<path style="fill:#78D2FA;" d="M337.916,469.946c0,17.669-14.323,31.992-31.992,31.992H41.99c-17.669,0-31.992-14.323-31.992-31.992
	V216.009c0-17.669,14.323-31.992,31.992-31.992h263.935c17.669,0,31.992,14.323,31.992,31.992V469.946z"/>
<path style="fill:#FFFFFF;" d="M337.916,255.999v205.949c0,22.086-17.905,39.99-39.99,39.99H49.988
	c-22.086,0-39.99-17.905-39.99-39.99V255.999H337.916z"/>
<path style="fill:#231F20;" d="M18.137,255.999h315.83"/>
<rect x="49.939" y="319.981" style="fill:#A5DC69;" width="95.976" height="95.976"/>
<path d="M504.419,178.331l-28.064-6.991c-4.488-19.012-11.951-37.017-22.248-53.675l14.901-24.79
	c2.365-3.935,1.748-8.975-1.499-12.221L431.41,44.555c-3.247-3.246-8.287-3.863-12.221-1.499l-24.79,14.901
	c-16.658-10.297-34.663-17.761-53.675-22.248l-6.991-28.064c-1.109-4.455-5.11-7.581-9.701-7.581h-51.044
	c-4.591,0-8.592,3.126-9.701,7.581l-6.991,28.064c-19.012,4.488-37.017,11.951-53.675,22.248l-24.79-14.901
	c-3.932-2.365-8.974-1.748-12.221,1.499l-36.099,36.099c-3.246,3.246-3.864,8.286-1.499,12.221l14.902,24.792
	c-6.206,10.054-11.431,20.698-15.566,31.725c-1.939,5.171,0.681,10.933,5.851,12.872c5.176,1.94,10.933-0.682,12.872-5.851
	c4.344-11.584,10.041-22.696,16.931-33.03c2.145-3.217,2.242-7.383,0.25-10.697l-14.077-23.417l25.052-25.052l23.417,14.077
	c3.312,1.992,7.478,1.894,10.697-0.25c17.732-11.824,37.285-19.928,58.113-24.087c3.793-0.758,6.809-3.635,7.743-7.388l6.604-26.511
	h35.419l6.604,26.511c0.935,3.753,3.95,6.63,7.743,7.388c20.828,4.159,40.381,12.263,58.113,24.087
	c3.218,2.145,7.384,2.242,10.697,0.25l23.417-14.077l25.052,25.052l-14.076,23.417c-1.993,3.314-1.896,7.48,0.25,10.697
	c11.824,17.732,19.928,37.285,24.087,58.113c0.758,3.793,3.635,6.809,7.388,7.743l26.511,6.604v35.419l-26.511,6.604
	c-3.753,0.935-6.63,3.95-7.388,7.743c-4.159,20.828-12.263,40.381-24.087,58.113c-2.145,3.217-2.242,7.383-0.25,10.697
	l14.076,23.417l-25.052,25.052l-23.417-14.076c-3.313-1.993-7.479-1.896-10.697,0.25c-12.681,8.456-26.35,15.014-40.766,19.593
	v-36.262c47.708-19.836,79.297-66.706,79.297-118.84c0-57.388-37.76-106.118-89.737-122.667c-0.318-0.119-0.642-0.223-0.971-0.309
	c-12.014-3.72-24.774-5.726-37.995-5.726c-56.203,0-105.502,36.29-122.504,89.168H41.99C18.836,174.02,0,192.856,0,216.009v253.937
	c0,23.153,18.836,41.99,41.99,41.99h263.935c23.153,0,41.99-18.836,41.99-41.99v-80.421c16.392-4.586,31.977-11.413,46.485-20.376
	l24.79,14.901c3.935,2.367,8.975,1.749,12.221-1.499l36.099-36.099c3.246-3.246,3.864-8.286,1.499-12.221l-14.901-24.79
	c10.297-16.658,17.761-34.663,22.248-53.675l28.064-6.991c4.455-1.109,7.581-5.11,7.581-9.701v-51.044
	C512,183.44,508.874,179.439,504.419,178.331z M347.914,255.305c8.421,1.362,15.614,7.219,18.534,15.431l7.493,21.076
	c-7.624,7.365-16.374,13.646-26.028,18.574V255.305z M407.216,213.553c0,22.023-6.684,42.928-18.392,60.431l-3.536-9.947
	c-5.751-16.175-20.488-27.4-37.374-28.865v-19.163c0-17.871-11.226-33.16-26.993-39.211v-18.67c0-9.08-4.532-17.475-12.123-22.454
	c-2.987-1.962-3.154-4.938-3.087-6.126c0.067-1.189,0.568-4.128,3.759-5.74l25.251-12.753
	C376.911,126.005,407.216,166.303,407.216,213.553z M302.5,104.928l-2.043,1.032c-8.661,4.375-14.159,12.769-14.708,22.457
	c-0.549,9.689,3.968,18.649,12.081,23.974c1.939,1.272,3.097,3.417,3.097,5.737v15.892h-36.374
	c3.714-5.035,5.435-11.236,4.77-17.654c-0.852-8.218-5.443-15.3-12.598-19.43c-1.35-0.779-2.305-2.102-2.621-3.627l-3.588-17.328
	c14.576-7.164,30.908-11.135,47.995-11.135C299.846,104.847,301.175,104.88,302.5,104.928z M232.421,127.211l2.102,10.153
	c1.473,7.104,5.921,13.261,12.204,16.888c2.103,1.215,2.597,3.136,2.704,4.173c0.107,1.037,0.018,3.019-1.794,4.639l-12.246,10.956
	h-38.17C204.561,155.153,216.882,139.094,232.421,127.211z M41.99,194.015h263.935c12.128,0,21.995,9.867,21.995,21.995v29.993
	H19.995v-29.993C19.995,203.882,29.862,194.015,41.99,194.015z M305.924,491.941H41.99c-12.128,0-21.995-9.867-21.995-21.995
	V265.997h307.924v203.949C327.919,482.074,318.052,491.941,305.924,491.941z"/>
<path d="M176.051,230.006h118.876c5.521,0,9.997-4.477,9.997-9.998s-4.477-9.998-9.997-9.998H176.051
	c-5.521,0-9.998,4.477-9.998,9.998S170.53,230.006,176.051,230.006z"/>
<path d="M87.948,230.006c2.639,0,5.209-1.07,7.078-2.93c1.86-1.859,2.919-4.429,2.919-7.067c0-2.629-1.06-5.209-2.919-7.068
	c-1.86-1.86-4.439-2.929-7.078-2.929c-2.629,0-5.209,1.069-7.068,2.929c-1.859,1.86-2.929,4.439-2.929,7.068s1.07,5.209,2.929,7.067
	C82.749,228.936,85.319,230.006,87.948,230.006z"/>
<path d="M49.938,230.006c2.629,0,5.209-1.07,7.067-2.93c1.86-1.859,2.93-4.438,2.93-7.067s-1.07-5.209-2.93-7.068
	c-1.859-1.86-4.438-2.929-7.067-2.929c-2.63,0-5.209,1.069-7.068,2.929s-2.929,4.439-2.929,7.068s1.069,5.209,2.929,7.067
	C44.729,228.936,47.307,230.006,49.938,230.006z"/>
<path d="M125.969,230.006c2.629,0,5.209-1.07,7.067-2.93c1.86-1.859,2.93-4.438,2.93-7.067s-1.07-5.209-2.93-7.068
	c-1.859-1.86-4.438-2.929-7.067-2.929s-5.209,1.069-7.068,2.929c-1.86,1.861-2.929,4.439-2.929,7.068s1.069,5.209,2.929,7.067
	C120.76,228.936,123.339,230.006,125.969,230.006z"/>
<path d="M189.953,329.981h67.661c5.521,0,9.998-4.477,9.998-9.998s-4.477-9.997-9.998-9.997h-67.661
	c-5.521,0-9.998,4.477-9.998,9.997S184.432,329.981,189.953,329.981z"/>
<path d="M300.364,405.962c-2.629,0-5.209,1.069-7.067,2.929c-1.86,1.859-2.93,4.439-2.93,7.068s1.07,5.209,2.93,7.067
	c1.859,1.87,4.438,2.93,7.067,2.93c2.629,0,5.209-1.061,7.068-2.93c1.86-1.859,2.929-4.438,2.929-7.067s-1.069-5.209-2.929-7.068
	C305.572,407.032,303.005,405.962,300.364,405.962z"/>
<path d="M260.602,405.965h-70.649c-5.521,0-9.998,4.477-9.998,9.998s4.477,9.998,9.998,9.998h70.649
	c5.521,0,9.997-4.477,9.997-9.998S266.123,405.965,260.602,405.965z"/>
<path d="M300.365,357.973H189.953c-5.521,0-9.998,4.477-9.998,9.998s4.477,9.998,9.998,9.998h110.413
	c5.521,0,9.998-4.477,9.998-9.998S305.887,357.973,300.365,357.973z"/>
<path d="M145.918,309.986H49.939c-5.521,0-9.998,4.477-9.998,9.997v95.979c0,5.521,4.477,9.998,9.998,9.998h95.979
	c5.521,0,9.998-4.477,9.998-9.998v-95.979C155.915,314.463,151.439,309.986,145.918,309.986z M135.92,405.965H59.936v-75.984h75.984
	V405.965z"/>
<path d="M461.885,383.635c-5.521,0-9.997,4.477-9.997,9.998v58.319h-43.563c1.597-3.659,0.907-8.075-2.086-11.068
	c-3.905-3.903-10.233-3.903-14.139,0l-15.264,15.264c-3.904,3.904-3.904,10.234,0,14.139l15.264,15.265
	c1.953,1.952,4.511,2.928,7.069,2.928c2.558,0,5.117-0.977,7.069-2.928c3.732-3.732,3.887-9.676,0.483-13.604h55.165
	c5.521,0,9.998-4.477,9.998-9.998v-68.318C471.883,388.112,467.406,383.635,461.885,383.635z"/>
<path d="M49.988,119.398c5.521,0,9.998-4.477,9.998-9.998V60.048h35.407c-2.395,3.857-1.929,8.986,1.42,12.336
	c1.953,1.952,4.511,2.928,7.069,2.928s5.117-0.977,7.069-2.928l15.265-15.264c1.875-1.875,2.928-4.418,2.928-7.069
	c0-2.651-1.054-5.195-2.928-7.069L110.95,27.717c-3.905-3.903-10.235-3.903-14.139,0c-3.349,3.35-3.816,8.479-1.42,12.336H49.988
	c-5.521,0-9.998,4.477-9.998,9.998V109.4C39.99,114.921,44.467,119.398,49.988,119.398z"/>
<path d="M49.988,156.305c2.629,0,5.209-1.061,7.067-2.92c1.86-1.869,2.93-4.438,2.93-7.067c0-2.64-1.07-5.209-2.93-7.078
	c-1.859-1.86-4.438-2.929-7.067-2.929s-5.209,1.069-7.068,2.929c-1.86,1.859-2.929,4.438-2.929,7.078
	c0,2.629,1.069,5.199,2.929,7.067C44.779,155.244,47.358,156.305,49.988,156.305z"/>
<g>
</g>
<g>
</g>
<g>
</g>
<g>
</g>
<g>
</g>
<g>
</g>
<g>
</g>
<g>
</g>
<g>
</g>
<g>
</g>
<g>
</g>
<g>
</g>
<g>
</g>
<g>
</g>
<g>
</g>
</svg>