<?xml version="1.0" encoding="iso-8859-1"?>
<!-- Generator: Adobe Illustrator 19.0.0, SVG Export Plug-In . SVG Version: 6.00 Build 0)  -->
<svg version="1.1" id="Capa_1" xmlns="http://www.w3.org/2000/svg" xmlns:xlink="http://www.w3.org/1999/xlink" x="0px" y="0px"
	 viewBox="0 0 512 512" style="enable-background:new 0 0 512 512;" xml:space="preserve">
<rect x="212" y="384" style="fill:#F0F0FA;" width="88" height="58"/>
<path style="fill:#78D2FA;" d="M156,482.002h200v-8c0-17.673-14.327-32-32-32H188c-17.673,0-32,14.327-32,32V482.002z"/>
<path style="fill:#FFFFFF;" d="M470,29.998c17.673,0,32,14.327,32,32v282c0,22.091-17.909,40-40,40H50c-22.091,0-40-17.909-40-40
	v-282c0-17.673,14.327-32,32-32L470,29.998L470,29.998z"/>
<path style="fill:#78D2FA;" d="M10,303.665v40.333c0,22.091,17.909,40,40,40h412c22.091,0,40-17.909,40-40v-40.333H10z"/>
<path d="M256.947,333.998c-5.523,0-10,4.478-10,10s4.477,10,10,10h0.095c5.523,0,9.952-4.478,9.952-10
	S262.47,333.998,256.947,333.998z"/>
<path d="M49.5,294c-2.63,0-5.21,1.069-7.07,2.93c-1.86,1.86-2.93,4.44-2.93,7.07c0,2.64,1.07,5.21,2.93,7.069
	c1.86,1.86,4.44,2.931,7.07,2.931s5.21-1.07,7.07-2.931c1.86-1.859,2.93-4.43,2.93-7.069c0-2.63-1.07-5.21-2.93-7.07
	S52.13,294,49.5,294z"/>
<path d="M470,19.998H42c-23.159,0-42,18.841-42,42v282c0,27.57,22.43,50,50,50h152v38.004h-14c-23.159,0-42,18.841-42,42v8
	c0,5.522,4.477,10,10,10h200c5.523,0,10-4.478,10-10v-8c0-23.159-18.841-42-42-42h-14v-38.004h152c27.57,0,50-22.43,50-50v-282
	C512,38.839,493.159,19.998,470,19.998z M345.91,472.002H166.09c1.013-11.197,10.453-20,21.91-20h24h88h24
	C335.457,452.002,344.896,460.805,345.91,472.002z M290,432.002h-68v-38.004h68V432.002z M462,373.998H300h-88H50
	c-16.542,0-30-13.458-30-30v-282c0-12.131,9.869-22,22-22h428c12.131,0,22,9.869,22,22v232.004H88c-5.523,0-10,4.478-10,10
	s4.477,10,10,10h404v29.996C492,360.54,478.542,373.998,462,373.998z"/>
<path d="M104.167,243.994c0-5.522-4.477-10-10-10c-4.228,0-7.667-3.439-7.667-7.667v-43.902c0-2.652-1.054-5.195-2.929-7.071
	l-5.429-5.429l5.429-5.429c1.875-1.876,2.929-4.419,2.929-7.071v-43.903c0-4.228,3.439-7.667,7.667-7.667c5.523,0,10-4.478,10-10
	s-4.477-10-10-10c-15.255,0-27.667,12.411-27.667,27.667v39.761l-9.571,9.571c-3.905,3.905-3.905,10.237,0,14.143l9.571,9.571v39.76
	c0,15.256,12.411,27.667,27.667,27.667C99.689,253.994,104.167,249.517,104.167,243.994z"/>
<path d="M425.5,182.425v43.902c0,4.228-3.439,7.667-7.667,7.667c-5.523,0-10,4.478-10,10s4.477,10,10,10
	c15.255,0,27.667-12.411,27.667-27.667v-39.76l9.571-9.571c3.905-3.905,3.905-10.237,0-14.143l-9.571-9.571v-39.761
	c0-15.256-12.411-27.667-27.667-27.667c-5.523,0-10,4.478-10,10s4.477,10,10,10c4.228,0,7.667,3.439,7.667,7.667v43.903
	c0,2.652,1.054,5.195,2.929,7.071l5.429,5.429l-5.429,5.429C426.554,177.229,425.5,179.772,425.5,182.425z"/>
<path d="M141,157.997h148.5c5.523,0,10-4.478,10-10s-4.477-10-10-10H141c-5.523,0-10,4.478-10,10S135.477,157.997,141,157.997z"/>
<path d="M375,137.997h-42.5c-5.523,0-10,4.478-10,10s4.477,10,10,10H375c5.523,0,10-4.478,10-10S380.523,137.997,375,137.997z"/>
<path d="M375,233.987h-29.162c-5.523,0-10,4.478-10,10s4.477,10,10,10H375c5.523,0,10-4.478,10-10S380.523,233.987,375,233.987z"/>
<path d="M141,254h164.737c5.523,0,10-4.478,10-10s-4.477-10-10-10H141c-5.523,0-10,4.478-10,10S135.477,254,141,254z"/>
<path d="M141,205.995h44c5.523,0,10-4.478,10-10s-4.477-10-10-10h-44c-5.523,0-10,4.478-10,10S135.477,205.995,141,205.995z"/>
<path d="M375,185.99c-2.64,0-5.21,1.069-7.07,2.93c-1.86,1.87-2.93,4.439-2.93,7.08c0,2.63,1.07,5.2,2.93,7.069
	c1.86,1.86,4.44,2.921,7.07,2.921s5.21-1.061,7.07-2.921C383.93,201.2,385,198.63,385,196c0-2.641-1.07-5.21-2.93-7.08
	C380.21,187.06,377.64,185.99,375,185.99z"/>
<path d="M351.667,195.995c0-5.522-4.477-10-10-10H229.443c-5.523,0-10,4.478-10,10s4.477,10,10,10h112.223
	C347.189,205.995,351.667,201.518,351.667,195.995z"/>
<path d="M141,109.999h88.052c5.523,0,10-4.478,10-10s-4.477-10-10-10H141c-5.523,0-10,4.478-10,10S135.477,109.999,141,109.999z"/>
<path d="M282.948,109.999H375c5.523,0,10-4.478,10-10s-4.477-10-10-10h-92.052c-5.523,0-10,4.478-10,10
	S277.425,109.999,282.948,109.999z"/>
<g>
</g>
<g>
</g>
<g>
</g>
<g>
</g>
<g>
</g>
<g>
</g>
<g>
</g>
<g>
</g>
<g>
</g>
<g>
</g>
<g>
</g>
<g>
</g>
<g>
</g>
<g>
</g>
<g>
</g>
</svg>