<?xml version="1.0" encoding="iso-8859-1"?>
<!-- Generator: Adobe Illustrator 19.0.0, SVG Export Plug-In . SVG Version: 6.00 Build 0)  -->
<svg version="1.1" id="Capa_1" xmlns="http://www.w3.org/2000/svg" xmlns:xlink="http://www.w3.org/1999/xlink" x="0px" y="0px"
	 viewBox="0 0 512 512" style="enable-background:new 0 0 512 512;" xml:space="preserve">
<path style="fill:#FFFFFF;" d="M393.975,216V100.086L303.891,10H50c-22.091,0-40,17.909-40,40v412c0,22.091,17.909,40,40,40h343.975
	V216z"/>
<path style="fill:#78D2FA;" d="M343.891,100.086h50.083l-90.083-90.084v50.084C303.891,82.178,321.8,100.086,343.891,100.086z"/>
<path style="fill:#FF5A5A;" d="M403.063,502h-82.127C296.119,502,276,481.881,276,457.063V310h172v147.064
	C448,481.881,427.881,502,403.063,502z"/>
<path d="M83.244,186.163l11.236-23.395l12.25,23.663c1.72,3.322,5.147,5.403,8.88,5.403c0.05,0,0.101,0,0.151-0.001
	c3.791-0.057,7.223-2.252,8.864-5.67l19.915-41.466c2.391-4.979,0.293-10.953-4.685-13.343c-4.976-2.392-10.953-0.294-13.343,4.685
	l-11.236,23.395l-12.25-23.663c-1.743-3.367-5.221-5.466-9.031-5.402c-3.791,0.057-7.223,2.252-8.864,5.67l-11.236,23.395
	l-12.25-23.664c-2.539-4.904-8.572-6.822-13.478-4.284c-4.905,2.539-6.822,8.573-4.284,13.478l21.465,41.466
	c1.743,3.367,5.197,5.435,9.031,5.402C78.17,191.775,81.603,189.58,83.244,186.163z"/>
<path d="M229.362,186.163l19.915-41.466c2.391-4.979,0.293-10.953-4.685-13.343c-4.977-2.392-10.953-0.294-13.343,4.685
	l-11.236,23.395l-12.25-23.663c-1.743-3.367-5.229-5.466-9.031-5.402c-3.791,0.057-7.223,2.252-8.864,5.67l-11.236,23.395
	l-12.25-23.663c-2.539-4.904-8.574-6.821-13.478-4.284c-4.905,2.539-6.822,8.573-4.284,13.478l21.466,41.466
	c1.743,3.367,5.256,5.457,9.031,5.402c3.791-0.057,7.223-2.252,8.864-5.67l11.236-23.395l12.25,23.663
	c1.72,3.322,5.147,5.403,8.88,5.403c0.05,0,0.101,0,0.151-0.001C224.288,191.775,227.721,189.58,229.362,186.163z"/>
<path d="M349.329,131.353c-4.977-2.392-10.952-0.294-13.343,4.685l-11.236,23.395L312.5,135.77
	c-1.743-3.367-5.238-5.466-9.031-5.402c-3.791,0.057-7.223,2.252-8.864,5.67l-11.236,23.395l-12.25-23.663
	c-2.539-4.904-8.574-6.821-13.478-4.284c-4.905,2.539-6.822,8.573-4.284,13.478l21.466,41.466c1.743,3.367,5.259,5.457,9.031,5.402
	c3.791-0.057,7.223-2.252,8.864-5.67l11.236-23.395l12.25,23.663c1.72,3.322,5.147,5.403,8.88,5.403c0.05,0,0.101,0,0.151-0.001
	c3.791-0.057,7.223-2.252,8.864-5.67l19.915-41.466C356.405,139.718,354.308,133.744,349.329,131.353z"/>
<path d="M217,223.938h-97.312c-5.523,0-10,4.477-10,10s4.477,10,10,10H217c5.523,0,10-4.477,10-10S222.523,223.938,217,223.938z"/>
<path d="M67.45,226.87c-1.87-1.87-4.44-2.93-7.07-2.93c-2.64,0-5.21,1.06-7.08,2.93c-1.86,1.86-2.92,4.43-2.92,7.07
	c0,2.63,1.06,5.21,2.92,7.07s4.44,2.93,7.08,2.93c2.63,0,5.2-1.07,7.07-2.93c1.86-1.86,2.93-4.44,2.93-7.07
	S69.31,228.73,67.45,226.87z"/>
<path d="M217,335.935h-97.312c-5.523,0-10,4.478-10,10s4.477,10,10,10H217c5.523,0,10-4.478,10-10S222.523,335.935,217,335.935z"/>
<path d="M67.45,338.859c-1.87-1.859-4.44-2.92-7.07-2.92c-2.64,0-5.21,1.061-7.07,2.92c-1.87,1.87-2.94,4.44-2.94,7.08
	c0,2.63,1.07,5.2,2.94,7.07c1.86,1.86,4.43,2.93,7.07,2.93c2.63,0,5.2-1.069,7.07-2.93c1.86-1.87,2.93-4.44,2.93-7.07
	C70.38,343.3,69.31,340.729,67.45,338.859z"/>
<path d="M217,279.933h-97.312c-5.523,0-10,4.478-10,10s4.477,10,10,10H217c5.523,0,10-4.478,10-10S222.523,279.933,217,279.933z"/>
<path d="M67.45,297c1.86-1.86,2.92-4.44,2.92-7.07s-1.06-5.21-2.92-7.07c-1.86-1.859-4.44-2.93-7.08-2.93
	c-2.63,0-5.2,1.07-7.07,2.93c-1.86,1.86-2.92,4.44-2.92,7.07s1.06,5.21,2.92,7.07c1.87,1.87,4.44,2.93,7.07,2.93
	C63.01,299.93,65.58,298.87,67.45,297z"/>
<path d="M60.37,391.939c-2.63,0-5.2,1.07-7.07,2.931c-1.86,1.859-2.92,4.43-2.92,7.069c0,2.63,1.06,5.21,2.92,7.07
	c1.87,1.86,4.44,2.93,7.07,2.93c2.64,0,5.21-1.069,7.08-2.93c1.86-1.86,2.93-4.44,2.93-7.07s-1.07-5.21-2.93-7.069
	C65.59,393.01,63.01,391.939,60.37,391.939z"/>
<path d="M119.688,391.938c-5.523,0-10,4.478-10,10s4.477,10,10,10H179c5.523,0,10-4.478,10-10s-4.477-10-10-10H119.688z"/>
<path d="M217,391.939c-2.63,0-5.21,1.07-7.07,2.931c-1.86,1.859-2.93,4.439-2.93,7.069s1.07,5.21,2.93,7.07
	c1.86,1.86,4.44,2.93,7.07,2.93s5.21-1.069,7.07-2.93s2.93-4.44,2.93-7.07s-1.07-5.21-2.93-7.069
	C222.21,393.01,219.63,391.939,217,391.939z"/>
<path d="M475.75,327H458v-17c0-5.522-4.477-10-10-10h-59.208c1.03-8.568-1.728-17.51-8.289-24.071c-1.718-1.717-2.663-4-2.663-6.429
	s0.945-4.712,2.663-6.429c3.905-3.905,3.905-10.237,0-14.143c-3.905-3.905-10.237-3.905-14.143,0
	c-11.343,11.343-11.343,29.8,0,41.143c2.68,2.68,3.33,6.629,1.958,9.929H276c-5.523,0-10,4.478-10,10v147.063
	c0,13.258,4.721,25.435,12.571,34.937H50c-16.542,0-30-13.458-30-30V50c0-16.542,13.458-30,30-30h243.891v40.086
	c0,27.57,22.43,50,50,50h40.083V216c0,5.523,4.477,10,10,10s10-4.477,10-10V100.086c0-2.652-1.054-5.196-2.929-7.071L310.962,2.929
	C309.087,1.054,306.543,0,303.891,0H50C22.43,0,0,22.43,0,50v412c0,27.57,22.43,50,50,50h270.937h73.038h9.089
	C433.355,512,458,487.355,458,457.063V449h17.75c19.988,0,36.25-16.262,36.25-36.25v-49.5C512,343.262,495.738,327,475.75,327z
	 M313.891,34.144l55.941,55.942h-25.941c-16.542,0-30-13.458-30-30V34.144z M438,457.063C438,476.327,422.328,492,403.063,492
	h-9.089h-73.038C301.672,492,286,476.327,286,457.063V320h152v17v102V457.063z M492,412.75c0,8.96-7.29,16.25-16.25,16.25H458v-82
	h17.75c8.96,0,16.25,7.29,16.25,16.25V412.75z"/>
<path d="M319.95,286.803c1.953,1.952,4.512,2.929,7.071,2.929s5.119-0.977,7.071-2.929c11.342-11.343,11.342-29.8,0-41.143
	c-1.717-1.717-2.663-4-2.663-6.429c0-2.428,0.946-4.711,2.664-6.429c3.905-3.905,3.905-10.237,0-14.143s-10.237-3.905-14.143,0
	c-5.495,5.495-8.521,12.801-8.521,20.571c0,7.771,3.026,15.077,8.521,20.571c3.545,3.545,3.545,9.313,0,12.857
	C316.044,276.566,316.045,282.897,319.95,286.803z"/>
<path d="M322.25,383.5c-5.523,0-10,4.478-10,10V449c0,5.522,4.477,10,10,10s10-4.478,10-10v-55.5
	C332.25,387.978,327.773,383.5,322.25,383.5z"/>
<path d="M322.25,345.67c-2.63,0-5.21,1.06-7.07,2.93c-1.86,1.86-2.93,4.431-2.93,7.07c0,2.63,1.07,5.2,2.93,7.07
	c1.86,1.859,4.44,2.93,7.07,2.93s5.21-1.07,7.07-2.93c1.86-1.86,2.93-4.44,2.93-7.07c0-2.64-1.07-5.21-2.93-7.07
	C327.46,346.729,324.88,345.67,322.25,345.67z"/>
<g>
</g>
<g>
</g>
<g>
</g>
<g>
</g>
<g>
</g>
<g>
</g>
<g>
</g>
<g>
</g>
<g>
</g>
<g>
</g>
<g>
</g>
<g>
</g>
<g>
</g>
<g>
</g>
<g>
</g>
</svg>
