<?xml version="1.0" encoding="iso-8859-1"?>
<!-- Generator: Adobe Illustrator 19.0.0, SVG Export Plug-In . SVG Version: 6.00 Build 0)  -->
<svg version="1.1" id="Capa_1" xmlns="http://www.w3.org/2000/svg" xmlns:xlink="http://www.w3.org/1999/xlink" x="0px" y="0px"
	 viewBox="0 0 512.002 512.002" style="enable-background:new 0 0 512.002 512.002;" xml:space="preserve">
<g>
	<path style="fill:#FF5A5A;" d="M193.621,86.756l13.831,4.303L70.55,227.962l-60.534-60.534l46.958-46.958
		C92.724,84.72,145.346,71.737,193.621,86.756z"/>
	<path style="fill:#FF5A5A;" d="M425.26,318.394l-4.303-13.831L284.054,441.466L344.588,502l46.958-46.958
		C427.296,419.292,440.279,366.67,425.26,318.394z"/>
</g>
<path style="fill:#FFFFFF;" d="M492.576,19.407L492.576,19.407c-105.694-26.694-217.64,4.167-294.724,81.251L70.55,227.962
	l106.735,106.735l0.032,0.032l106.736,106.736l127.284-127.284c77.095-77.095,107.953-189.058,81.241-294.763L492.576,19.407z"/>
<polygon style="fill:#F5B955;" points="196.336,428.688 106.368,463.881 119.26,424.018 55.687,456.576 88.16,392.917 
	48.298,405.81 83.491,315.841 "/>
<circle style="fill:#78D2FA;" cx="309.087" cy="202.931" r="105.085"/>
<polyline style="fill:#FF5A5A;" points="264.208,424.325 228.091,460.442 51.676,284.028 87.794,247.911 "/>
<path d="M502.281,16.993l-0.002-0.012c-0.894-3.575-3.681-6.368-7.253-7.27C441.49-3.811,385.059-3.201,331.828,11.475
	c-46.806,12.904-90.164,36.419-126.492,68.451l-8.742-2.72C144.608,61.032,88.4,74.901,49.904,113.397L2.945,160.356
	c-3.905,3.905-3.905,10.238,0,14.144l60.533,60.534l11.525,11.525l-30.398,30.398c-3.905,3.905-3.905,10.238,0,14.144l27.189,27.189
	l-32.811,83.877c-1.407,3.599-0.616,7.686,2.033,10.5c2.648,2.813,6.68,3.847,10.358,2.659l16.92-5.472l-21.516,42.18
	c-1.97,3.863-1.226,8.557,1.843,11.622c3.07,3.064,7.764,3.803,11.625,1.824l42.062-21.542l-5.455,16.868
	c-1.189,3.676-0.154,7.708,2.659,10.358c1.889,1.779,4.353,2.72,6.857,2.72c1.225,0,2.459-0.225,3.641-0.687l83.877-32.811
	l27.13,27.13c1.953,1.953,4.512,2.929,7.071,2.929c2.559,0,5.119-0.976,7.071-2.929l30.399-30.399l11.423,11.423l60.533,60.534
	c1.875,1.875,4.419,2.929,7.071,2.929c2.652,0,5.196-1.054,7.071-2.929l46.958-46.958c38.497-38.497,52.365-94.705,36.192-146.689
	l-2.72-8.744c32.028-36.33,55.539-79.687,68.438-126.492C515.201,126.949,515.806,70.509,502.281,16.993z M64.046,127.541
	c32.734-32.735,80.312-44.834,124.617-31.837L70.549,213.818l-46.39-46.39L64.046,127.541z M122.378,446.88l6.398-19.785
	c1.245-3.85,0.048-8.07-3.033-10.693c-3.081-2.622-7.437-3.13-11.041-1.285l-36.06,18.468l18.427-36.124
	c1.837-3.602,1.325-7.955-1.298-11.033c-2.623-3.077-6.84-4.271-10.688-3.027L65.299,389.8l21.934-56.073l91.218,91.218
	L122.378,446.88z M228.091,446.299l-24.575-24.575c-0.015-0.015-0.03-0.03-0.045-0.045L90.506,308.715
	c-0.019-0.019-0.037-0.037-0.056-0.056l-24.631-24.631l23.327-23.326l162.271,162.27L228.091,446.299z M384.475,447.97
	l-39.887,39.887l-46.39-46.391l118.114-118.114C429.31,367.658,417.21,415.235,384.475,447.97z M404.297,307.08L284.054,427.323
	L84.693,227.962l19.734-19.734l45.557,45.557c1.953,1.953,4.512,2.929,7.071,2.929c2.559,0,5.119-0.976,7.071-2.929
	c3.905-3.905,3.905-10.238,0-14.144l-45.557-45.557l86.354-86.354c72.775-72.775,179.317-103.15,279.369-80.037
	C507.429,127.749,477.065,234.291,404.297,307.08z"/>
<path d="M183.925,263.588c-2.63,0-5.21,1.06-7.07,2.92c-1.86,1.87-2.93,4.44-2.93,7.08c0,2.63,1.07,5.21,2.93,7.07
	s4.44,2.93,7.07,2.93c2.63,0,5.21-1.07,7.07-2.93s2.93-4.44,2.93-7.07c0-2.64-1.07-5.21-2.93-7.08
	C189.135,264.648,186.555,263.588,183.925,263.588z"/>
<path d="M399.561,148.488c-4.98,2.386-7.083,8.359-4.697,13.34c17.399,36.311,9.949,79.848-18.541,108.336
	c-37.073,37.075-97.398,37.074-134.472,0c-17.96-17.959-27.85-41.837-27.85-67.236c0-25.398,9.891-49.277,27.85-67.235
	c28.535-28.536,72.129-35.961,108.469-18.477c4.979,2.397,10.954,0.3,13.348-4.676c2.395-4.977,0.301-10.954-4.676-13.348
	C315,78.027,262.243,87.014,227.708,121.548c-21.737,21.737-33.709,50.639-33.709,81.379c0,30.742,11.972,59.642,33.709,81.379
	c22.436,22.436,51.908,33.654,81.379,33.654c29.471,0,58.943-11.219,81.379-33.655c34.478-34.479,43.493-87.172,22.434-131.123
	C410.513,148.203,404.54,146.101,399.561,148.488z"/>
<path d="M376.478,135.848c1.955,1.971,4.527,2.957,7.1,2.957c2.545,0,5.092-0.966,7.042-2.901c3.92-3.89,3.946-10.222,0.056-14.143
	l-0.184-0.184c-3.89-3.92-10.222-3.946-14.143-0.056c-3.92,3.89-3.946,10.222-0.056,14.143L376.478,135.848z"/>
<path d="M268.695,162.536h25.973c5.523,0,10-4.477,10-10.001c0-5.523-4.477-10.001-10-10.001h-35.974
	c-5.523,0-10.001,4.477-10.001,10.001v35.974c0,5.523,4.477,10.001,10.001,10.001s10-4.477,10-10.001V162.536z"/>
<path d="M349.479,217.346v25.974h-25.973c-5.523,0-10.001,4.477-10.001,10.001c0,5.523,4.477,10.001,10.001,10.001h35.974
	c5.523,0,10.001-4.477,10.001-10.001v-35.975c0-5.523-4.477-10.001-10.001-10.001C353.956,207.346,349.479,211.823,349.479,217.346z
	"/>
<path d="M274.773,221.84c0.832,0,1.678-0.104,2.521-0.324l68.614-17.819c5.346-1.388,8.554-6.847,7.165-12.193
	c-1.388-5.346-6.844-8.553-12.193-7.165l-68.615,17.819c-5.346,1.388-8.554,6.847-7.165,12.193
	C266.27,218.855,270.327,221.84,274.773,221.84z"/>
<path d="M25.27,472.593L2.935,494.928c-3.905,3.905-3.905,10.238,0,14.144c1.953,1.953,4.512,2.929,7.071,2.929
	s5.119-0.976,7.071-2.929l22.334-22.334c3.905-3.905,3.905-10.238,0-14.144C35.507,468.688,29.175,468.688,25.27,472.593z"/>
<path d="M73.272,478.594l-16.334,16.334c-3.905,3.905-3.905,10.238,0,14.144C58.891,511.024,61.45,512,64.01,512
	c2.559,0,5.119-0.976,7.071-2.929l16.334-16.334c3.905-3.905,3.905-10.238,0-14.144C83.51,474.688,77.177,474.688,73.272,478.594z"
	/>
<path d="M10.006,461.007c2.559,0,5.119-0.976,7.071-2.929l19.172-19.172c3.905-3.905,3.905-10.238,0-14.144
	c-3.905-3.905-10.238-3.905-14.144,0L2.935,443.934c-3.905,3.905-3.905,10.238,0,14.144C4.888,460.031,7.447,461.007,10.006,461.007
	z"/>
<g>
</g>
<g>
</g>
<g>
</g>
<g>
</g>
<g>
</g>
<g>
</g>
<g>
</g>
<g>
</g>
<g>
</g>
<g>
</g>
<g>
</g>
<g>
</g>
<g>
</g>
<g>
</g>
<g>
</g>
</svg>
