<?xml version="1.0" encoding="iso-8859-1"?>
<!-- Generator: Adobe Illustrator 19.0.0, SVG Export Plug-In . SVG Version: 6.00 Build 0)  -->
<svg version="1.1" id="Capa_1" xmlns="http://www.w3.org/2000/svg" xmlns:xlink="http://www.w3.org/1999/xlink" x="0px" y="0px"
	 viewBox="0 0 512 512" style="enable-background:new 0 0 512 512;" xml:space="preserve">
<path style="fill:#78D2FA;" d="M194.012,502h178.049l0,0c0-22.094-17.91-40.004-40.004-40.004h-98.041
	C211.922,461.996,194.012,479.906,194.012,502L194.012,502z"/>
<g>
	<rect x="243.04" y="418" style="fill:#F0F0FA;" width="80" height="43.998"/>
	<path style="fill:#F0F0FA;" d="M357.234,85.998H462c22.091,0,40,17.909,40,40v252c0,22.091-17.909,40-40,40H104
		c-22.091,0-40-17.909-40-40v-252c0-22.091,17.909-40,40-40h104.918"/>
</g>
<path style="fill:#78D2FA;" d="M462,417.998H104c-22.091,0-40-17.909-40-40v-28h438v28C502,400.089,484.091,417.998,462,417.998z"/>
<path style="fill:#6E87F5;" d="M9.935,242V39.5c0-16.292,13.208-29.5,29.5-29.5h141c16.292,0,29.5,13.208,29.5,29.5v245
	c0,16.292-13.208,29.5-29.5,29.5h-141c-16.292,0-29.5-13.208-29.5-29.5L9.935,242"/>
<rect x="9.935" y="68.13" style="fill:#FFFFFF;" width="200" height="191.87"/>
<path style="fill:#A5DC69;" d="M110,164.063h42c0,23.196-18.804,42-42,42s-42-18.804-42-42s18.804-42,42-42V164.063z"/>
<path style="fill:#FF5A5A;" d="M110,108v56.063h56.063C166.063,133.1,140.963,108,110,108z"/>
<circle style="fill:#6E87F5;" cx="367.23" cy="229.19" r="22.573"/>
<circle style="fill:#A5DC69;" cx="289" cy="150.4" r="22.573"/>
<circle style="fill:#FF5A5A;" cx="445.07" cy="154.49" r="22.573"/>
<path d="M462,75.998H297c-5.522,0-10,4.478-10,10s4.478,10,10,10h165c6.817,0,13.106,2.29,18.15,6.134L457.782,124.5
	c-3.908-1.663-8.204-2.584-12.712-2.584c-17.961,0-32.573,14.612-32.573,32.573c0,4.508,0.922,8.804,2.584,12.712l-33.011,33.01
	c-4.454-2.29-9.496-3.591-14.839-3.591c-5.312,0-10.325,1.286-14.76,3.551L317.83,165.53c2.385-4.525,3.742-9.672,3.742-15.133
	c0-17.96-14.612-32.572-32.573-32.572s-32.573,14.612-32.573,32.572c0,4.663,0.992,9.096,2.765,13.11L220,202.698V68.127V39.5
	C220,17.72,202.28,0,180.5,0h-141C17.72,0,0,17.72,0,39.5v245C0,306.28,17.72,324,39.5,324H54v53.998c0,27.57,22.43,50,50,50
	h129.036v24.023c-27.12,0.526-49.024,22.735-49.024,49.979c0,5.522,4.478,10,10,10h178.049c5.522,0,10-4.478,10-10
	c0-27.244-21.904-49.453-49.024-49.979v-24.023H462c27.57,0,50-22.43,50-50v-252C512,98.428,489.57,75.998,462,75.998z
	 M445.07,141.916c2.642,0,5.092,0.823,7.118,2.22c0.017,0.017,0.031,0.036,0.048,0.053c0.493,0.492,1.024,0.922,1.584,1.29
	c2.353,2.286,3.822,5.477,3.822,9.009c0,6.933-5.64,12.572-12.572,12.572s-12.573-5.64-12.573-12.572
	S438.138,141.916,445.07,141.916z M379.805,229.193c0,6.933-5.641,12.573-12.573,12.573s-12.572-5.641-12.572-12.573
	s5.64-12.573,12.572-12.573S379.805,222.261,379.805,229.193z M289,137.824c6.933,0,12.573,5.64,12.573,12.572
	S295.933,162.97,289,162.97s-12.573-5.641-12.573-12.573S282.067,137.824,289,137.824z M20,78.127h180v148.709
	c0,0.003,0,0.007,0,0.01V250H20V78.127z M39.5,20h141c10.752,0,19.5,8.748,19.5,19.5v18.627H20V39.5C20,28.748,28.748,20,39.5,20z
	 M20,284.5V270h180v14.5c0,10.752-8.748,19.5-19.5,19.5h-141C28.748,304,20,295.252,20,284.5z M360.348,492H205.725
	c4.128-11.643,15.252-20.004,28.291-20.004h9.021h80h9.021C345.096,471.996,356.22,480.357,360.348,492z M313.036,451.996h-60
	v-23.998h60V451.996z M462,407.998H323.036h-80H104c-16.542,0-30-13.458-30-30V324h106.5c21.78,0,39.5-17.72,39.5-39.5V260v-29.017
	l52.512-52.512c4.84,2.854,10.475,4.498,16.488,4.498c5.226,0,10.164-1.244,14.545-3.441l34.746,34.746
	c-2.315,4.473-3.632,9.543-3.632,14.918c0,17.961,14.612,32.573,32.572,32.573c17.961,0,32.573-14.612,32.573-32.573
	c0-5.343-1.301-10.385-3.591-14.839l32.002-32.002c4.92,2.987,10.69,4.709,16.854,4.709c17.96,0,32.572-14.612,32.572-32.572
	c0-6.165-1.722-11.934-4.709-16.854l18.309-18.31c0.49,2.148,0.757,4.379,0.757,6.673v214h-37V256c0-5.522-4.478-10-10-10
	s-10,4.478-10,10v83.998h-58V287c0-5.522-4.478-10-10-10s-10,4.478-10,10v52.998h-58V236.002c0-5.522-4.478-10-10-10
	s-10,4.478-10,10v103.996h-69c-5.522,0-10,4.478-10,10s4.478,10,10,10h282v18C492,394.54,478.542,407.998,462,407.998z"/>
<path d="M85.291,49h49.502c5.522,0,10-4.478,10-10s-4.478-10-10-10H85.291c-5.522,0-10,4.478-10,10S79.769,49,85.291,49z"/>
<path d="M109.935,297h0.131c5.522,0,10-4.478,10-10s-4.478-10-10-10h-0.131c-5.522,0-10,4.478-10,10S104.412,297,109.935,297z"/>
<path d="M110,98c-5.522,0-10,4.478-10,10v5.028c-23.905,4.675-42,25.782-42,51.035c0,28.673,23.327,52,52,52
	c25.253,0,46.36-18.095,51.035-42h5.028c5.522,0,10-4.478,10-10C176.063,127.636,146.428,98,110,98z M110,196.063
	c-17.645,0-32-14.355-32-32c0-14.154,9.237-26.191,22-30.4v30.4c0,5.522,4.478,10,10,10h30.4
	C136.191,186.826,124.154,196.063,110,196.063z M120,154.063v-34.971c17.389,3.863,31.107,17.582,34.971,34.971H120z"/>
<path d="M283,372c-2.63,0-5.21,1.069-7.07,2.93S273,379.37,273,382s1.069,5.21,2.93,7.069c1.86,1.86,4.44,2.931,7.07,2.931
	s5.21-1.07,7.069-2.931C291.93,387.21,293,384.63,293,382s-1.07-5.21-2.931-7.07C288.21,373.069,285.63,372,283,372z"/>
<path d="M445,226c2.63,0,5.21-1.07,7.069-2.931C453.93,221.21,455,218.63,455,216s-1.07-5.21-2.931-7.07
	C450.21,207.07,447.63,206,445,206s-5.21,1.069-7.07,2.93S435,213.37,435,216s1.069,5.21,2.93,7.069
	C439.79,224.93,442.37,226,445,226z"/>
<g>
</g>
<g>
</g>
<g>
</g>
<g>
</g>
<g>
</g>
<g>
</g>
<g>
</g>
<g>
</g>
<g>
</g>
<g>
</g>
<g>
</g>
<g>
</g>
<g>
</g>
<g>
</g>
<g>
</g>
</svg>
