<?xml version="1.0" encoding="iso-8859-1"?>
<!-- Generator: Adobe Illustrator 19.0.0, SVG Export Plug-In . SVG Version: 6.00 Build 0)  -->
<svg version="1.1" id="Capa_1" xmlns="http://www.w3.org/2000/svg" xmlns:xlink="http://www.w3.org/1999/xlink" x="0px" y="0px"
	 viewBox="0 0 512 512" style="enable-background:new 0 0 512 512;" xml:space="preserve">
<path style="fill:#C8F5FF;" d="M73.01,283.998h-1.037c-34.22,0-61.962-27.741-61.962-61.962c0-25.986,16.005-48.223,38.688-57.426
	c-0.985-4.387-1.522-8.943-1.522-13.627c0-34.22,27.741-61.962,61.962-61.962c9.643,0,18.771,2.204,26.909,6.134
	c19.139-49.802,67.415-85.152,123.956-85.152c63.78,0,117.045,44.979,129.829,104.944c8.119-2.524,16.75-3.883,25.698-3.883
	c47.754,0,86.467,38.713,86.467,86.467s-38.713,86.467-86.467,86.467H73.01V283.998z"/>
<path style="fill:#FF5A5A;" d="M447.293,369.444l-19.941,6.444c-4.975-4.028-10.587-7.299-16.664-9.636l-4.391-20.495h-35.517
	l-4.391,20.495c-6.077,2.337-11.689,5.607-16.664,9.636l-19.941-6.444l-17.784,30.748l15.564,14.059
	c-0.491,3.137-0.749,6.351-0.749,9.626c0,3.275,0.257,6.489,0.749,9.626l-15.564,14.059l17.784,30.748l19.941-6.444
	c4.975,4.028,10.587,7.299,16.664,9.636l4.391,20.495h35.517l4.391-20.495c6.077-2.337,11.689-5.607,16.664-9.636l19.941,6.444
	l17.784-30.748l-15.564-14.059c0.491-3.137,0.749-6.351,0.749-9.626c0-3.275-0.257-6.489-0.749-9.626l15.564-14.059L447.293,369.444
	z"/>
<polygon style="fill:#A5DC69;" points="124.696,183.338 144.295,195.119 174.323,182.675 179.854,160.477 217.544,160.477 
	223.075,182.675 253.103,195.119 272.702,183.338 299.359,209.995 287.577,229.594 300.022,259.622 322.219,265.153 
	322.219,302.844 300.022,308.374 287.577,338.402 299.359,358.002 272.702,384.658 253.103,372.876 223.075,385.321 
	217.544,407.518 179.854,407.518 174.323,385.321 144.295,372.876 124.696,384.658 98.039,358.002 109.82,338.402 97.376,308.374 
	75.178,302.844 75.178,265.153 97.376,259.622 109.82,229.594 98.039,209.995 "/>
<g>
	<circle style="fill:#FFFFFF;" cx="198.695" cy="283.993" r="55.169"/>
	<circle style="fill:#FFFFFF;" cx="388.541" cy="423.88" r="21.38"/>
</g>
<path d="M367.743,291.068c1.859-1.859,2.93-4.439,2.93-7.069s-1.07-5.21-2.93-7.07c-1.86-1.86-4.44-2.93-7.07-2.93
	c-2.64,0-5.21,1.069-7.07,2.93c-1.87,1.86-2.93,4.44-2.93,7.07s1.06,5.2,2.93,7.069c1.86,1.86,4.431,2.931,7.07,2.931
	C363.303,293.999,365.883,292.929,367.743,291.068z"/>
<path d="M415.533,101.065c-6.224,0-12.396,0.592-18.449,1.765c-8.023-27.499-24.355-52.276-46.706-70.577
	c-25.396-20.796-57.492-32.248-90.373-32.248c-29.436,0-57.7,8.889-81.737,25.706c-20.711,14.49-37.02,33.912-47.61,56.58
	c-6.916-2.171-14.12-3.268-21.518-3.268c-39.68,0-71.962,32.282-71.962,71.961c0,2.602,0.145,5.213,0.431,7.817
	C14.53,171.296,0.012,195.323,0.012,222.036c0,37.387,28.663,68.195,65.166,71.632v9.176c0,4.592,3.127,8.594,7.583,9.703
	l17.307,4.313l8.584,20.714l-9.183,15.277c-2.366,3.936-1.748,8.977,1.499,12.224l26.656,26.656
	c3.247,3.247,8.288,3.864,12.224,1.499l15.277-9.183l20.714,8.584l4.313,17.307c1.109,4.456,5.111,7.583,9.703,7.583h37.691
	c4.592,0,8.594-3.127,9.703-7.583l4.313-17.307l20.713-8.584l15.277,9.183c3.938,2.368,8.977,1.749,12.224-1.499l26.657-26.656
	c3.247-3.247,3.865-8.288,1.499-12.224l-9.184-15.277l8.585-20.714l17.307-4.313c4.456-1.109,7.583-5.111,7.583-9.703v-37.691
	c0-4.592-3.127-8.594-7.583-9.704l-17.307-4.311l-8.585-20.714l9.184-15.277c2.366-3.936,1.748-8.977-1.499-12.224l-26.657-26.657
	c-3.249-3.247-8.289-3.865-12.224-1.5l-15.277,9.184l-20.713-8.584l-4.313-17.307c-1.109-4.456-5.111-7.583-9.703-7.583h-37.691
	c-4.592,0-8.594,3.127-9.703,7.583l-4.313,17.307l-20.714,8.585l-15.277-9.184c-3.936-2.364-8.976-1.748-12.224,1.5l-26.656,26.656
	c-3.247,3.247-3.865,8.287-1.499,12.223l9.183,15.277l-8.584,20.714l-17.307,4.311c-4.456,1.11-7.583,5.112-7.583,9.704v8.388
	c-25.451-3.341-45.167-25.156-45.167-51.504c0-21.258,12.736-40.162,32.447-48.159c4.531-1.839,7.068-6.685,5.998-11.456
	c-0.849-3.782-1.279-7.629-1.279-11.437c0-28.652,23.31-51.962,51.963-51.962c7.909,0,15.499,1.729,22.56,5.139
	c2.518,1.216,5.43,1.322,8.03,0.293c2.6-1.03,4.649-3.101,5.653-5.711c18.099-47.097,64.161-78.739,114.622-78.739
	c54.68,0,102.964,36.81,117.949,88.673c-9.312,3.953-18.033,9.376-25.678,16.022c-4.249,3.693-8.2,7.784-11.744,12.16
	c-3.477,4.292-2.815,10.589,1.477,14.065c1.853,1.5,4.077,2.229,6.288,2.229c2.912,0,5.801-1.267,7.776-3.707
	c2.813-3.474,5.95-6.721,9.323-9.652c8.046-6.994,17.586-12.278,27.726-15.39c0.793-0.243,1.589-0.477,2.389-0.693
	c0.021-0.006,0.042-0.012,0.063-0.018c6.476-1.745,13.176-2.629,19.959-2.629c42.164,0,76.467,34.303,76.467,76.467
	c0,42.165-34.303,76.467-76.467,76.467H392.67c-5.522,0-10,4.478-10,10s4.478,10,10,10h22.863c53.192,0,96.467-43.275,96.467-96.467
	S468.725,101.065,415.533,101.065z M85.178,272.967l14.615-3.641c3.076-0.766,5.607-2.946,6.821-5.875l12.444-30.029
	c1.214-2.93,0.967-6.262-0.668-8.98l-7.755-12.902l15.606-15.606l12.901,7.756c2.719,1.634,6.051,1.883,8.98,0.667l30.028-12.445
	c2.929-1.214,5.109-3.745,5.875-6.821l3.642-14.616h22.062l3.642,14.616c0.767,3.076,2.945,5.607,5.875,6.821l30.027,12.445
	c2.929,1.214,6.263,0.965,8.98-0.667l12.902-7.756l15.606,15.606l-7.756,12.901c-1.635,2.718-1.882,6.051-0.668,8.981l12.445,30.028
	c1.214,2.93,3.745,5.109,6.821,5.875l14.615,3.641v22.062l-14.615,3.642c-3.077,0.766-5.607,2.946-6.821,5.875l-12.445,30.028
	c-1.214,2.93-0.967,6.262,0.668,8.98l7.756,12.901l-15.607,15.606l-12.902-7.756c-2.716-1.632-6.05-1.881-8.979-0.667
	l-30.027,12.444c-2.929,1.214-5.108,3.744-5.875,6.821l-3.642,14.615h-22.062l-3.642-14.615c-0.767-3.077-2.946-5.607-5.875-6.821
	l-30.028-12.444c-2.931-1.215-6.264-0.966-8.979,0.667l-12.902,7.756l-15.606-15.606l7.756-12.902
	c1.634-2.718,1.881-6.05,0.667-8.979l-12.444-30.028c-1.214-2.929-3.744-5.108-6.821-5.875l-14.615-3.642L85.178,272.967
	L85.178,272.967z"/>
<path d="M212.068,66.04c-3.904-3.905-10.234-3.905-14.143,0l-20.921,20.921c-1.875,1.875-2.929,4.419-2.929,7.071
	c0,2.652,1.054,5.196,2.929,7.071l20.921,20.921c1.953,1.953,4.512,2.929,7.071,2.929c2.559,0,5.118-0.977,7.071-2.929
	c3.905-3.905,3.905-10.237,0-14.142l-13.851-13.85l13.851-13.85C215.974,76.276,215.974,69.945,212.068,66.04z"/>
<path d="M299.772,122.023c1.953,1.953,4.512,2.929,7.071,2.929c2.559,0,5.118-0.977,7.071-2.929l20.922-20.921
	c1.875-1.875,2.929-4.419,2.929-7.071c0-2.652-1.054-5.196-2.929-7.071L313.914,66.04c-3.906-3.905-10.236-3.905-14.143,0
	c-3.905,3.905-3.905,10.237,0,14.142l13.851,13.85l-13.851,13.85C295.867,111.786,295.867,118.118,299.772,122.023z"/>
<path d="M264.527,63.833l-29.539,50.266c-2.799,4.761-1.207,10.89,3.555,13.688c1.592,0.936,3.335,1.38,5.057,1.38
	c3.429,0,6.769-1.765,8.631-4.935l29.539-50.266c2.799-4.761,1.207-10.89-3.555-13.688
	C273.452,57.479,267.324,59.071,264.527,63.833z"/>
<path d="M473.733,395.185l-17.783-30.747c-2.359-4.079-7.248-5.959-11.73-4.509l-15.028,4.855c-3.118-2.149-6.394-4.043-9.805-5.67
	l-3.311-15.452c-0.988-4.611-5.063-7.905-9.778-7.905h-35.517c-4.716,0-8.79,3.294-9.778,7.905l-3.311,15.452
	c-3.411,1.627-6.687,3.521-9.805,5.67l-15.028-4.855c-4.482-1.45-9.371,0.43-11.73,4.509l-17.783,30.747
	c-2.362,4.085-1.548,9.265,1.953,12.428l11.741,10.604c-0.148,1.884-0.223,3.774-0.223,5.659c0,1.885,0.074,3.775,0.223,5.659
	l-11.741,10.604c-3.501,3.163-4.315,8.343-1.953,12.428l17.783,30.748c2.359,4.079,7.245,5.959,11.731,4.509l15.028-4.856
	c3.117,2.148,6.394,4.044,9.804,5.67l3.311,15.452c0.988,4.611,5.063,7.905,9.778,7.905h35.517c4.716,0,8.79-3.294,9.778-7.905
	l3.311-15.452c3.41-1.626,6.687-3.521,9.804-5.67l15.028,4.856c4.487,1.45,9.372-0.43,11.731-4.509l17.783-30.748
	c2.362-4.085,1.548-9.265-1.953-12.428l-11.741-10.604c0.148-1.884,0.223-3.774,0.223-5.659c0-1.885-0.074-3.775-0.223-5.659
	l11.741-10.604C475.281,404.45,476.095,399.27,473.733,395.185z M439.635,415.8c0.417,2.656,0.628,5.374,0.628,8.076
	s-0.211,5.42-0.628,8.076c-0.523,3.334,0.671,6.708,3.176,8.971l9.561,8.636l-9.688,16.751l-12.254-3.96
	c-3.216-1.038-6.74-0.384-9.368,1.744c-4.222,3.418-8.919,6.135-13.96,8.073c-3.153,1.213-5.481,3.936-6.189,7.239l-2.697,12.59
	h-19.348l-2.697-12.59c-0.708-3.304-3.036-6.026-6.189-7.239c-5.041-1.938-9.738-4.655-13.96-8.073
	c-2.628-2.129-6.153-2.784-9.368-1.744l-12.254,3.96l-9.688-16.751l9.561-8.636c2.505-2.263,3.699-5.637,3.176-8.971
	c-0.417-2.656-0.628-5.374-0.628-8.076s0.211-5.42,0.628-8.076c0.523-3.334-0.671-6.708-3.176-8.971l-9.561-8.635l9.688-16.752
	l12.255,3.96c3.218,1.039,6.74,0.385,9.367-1.744c4.222-3.418,8.919-6.135,13.96-8.073c3.153-1.213,5.481-3.936,6.189-7.239
	l2.697-12.59h19.348l2.697,12.59c0.708,3.304,3.036,6.026,6.189,7.239c5.041,1.938,9.738,4.655,13.96,8.073
	c2.626,2.128,6.153,2.782,9.367,1.744l12.255-3.96l9.688,16.752l-9.561,8.635C440.305,409.092,439.111,412.466,439.635,415.8z"/>
<path d="M198.698,349.166c35.934,0,65.168-29.233,65.168-65.167s-29.234-65.167-65.168-65.167s-65.167,29.234-65.167,65.167
	S162.765,349.166,198.698,349.166z M198.698,238.829c24.906,0,45.169,20.263,45.169,45.168s-20.263,45.168-45.169,45.168
	c-24.905,0-45.168-20.263-45.168-45.168S173.793,238.829,198.698,238.829z"/>
<path d="M10,415.995h38.519c5.522,0,10-4.478,10-10s-4.478-10-10-10H10c-5.522,0-10,4.478-10,10S4.478,415.995,10,415.995z"/>
<path d="M94,413.065c1.859-1.859,2.93-4.439,2.93-7.069s-1.07-5.21-2.93-7.07c-1.86-1.86-4.44-2.93-7.07-2.93
	c-2.63,0-5.21,1.069-7.07,2.93c-1.859,1.86-2.93,4.44-2.93,7.07s1.07,5.21,2.93,7.069c1.86,1.86,4.44,2.931,7.07,2.931
	C89.56,415.996,92.14,414.926,94,413.065z"/>
<path d="M289.068,491.983h-51.682c-5.522,0-10,4.478-10,10s4.478,10,10,10h51.682c5.522,0,10-4.478,10-10
	S294.591,491.983,289.068,491.983z"/>
<path d="M197.513,491.996H10c-5.522,0-10,4.478-10,10s4.478,10,10,10h187.514c5.522,0,10-4.478,10-10
	S203.035,491.996,197.513,491.996z"/>
<path d="M10,463.992h65.178c5.522,0,10-4.478,10-10s-4.478-10-10-10H10c-5.522,0-10,4.478-10,10S4.478,463.992,10,463.992z"/>
<path d="M256.006,463.992c5.522,0,10-4.478,10-10s-4.478-10-10-10H123.201c-5.522,0-10,4.478-10,10s4.478,10,10,10H256.006z"/>
<path d="M388.541,392.497c-17.303,0-31.379,14.077-31.379,31.379c0,17.303,14.077,31.379,31.379,31.379s31.379-14.077,31.379-31.379
	C419.92,406.573,405.843,392.497,388.541,392.497z M388.541,435.256c-6.274,0-11.38-5.105-11.38-11.38s5.105-11.38,11.38-11.38
	s11.38,5.105,11.38,11.38S394.815,435.256,388.541,435.256z"/>
<path d="M471.668,197.291c0-5.523-4.478-10-10-10c-5.522,0-10,4.477-10,10c0,20.058-16.318,36.374-36.375,36.374
	c-5.522,0-10,4.477-10,10c0,5.523,4.478,10,10,10C446.379,253.665,471.668,228.376,471.668,197.291z"/>
<g>
</g>
<g>
</g>
<g>
</g>
<g>
</g>
<g>
</g>
<g>
</g>
<g>
</g>
<g>
</g>
<g>
</g>
<g>
</g>
<g>
</g>
<g>
</g>
<g>
</g>
<g>
</g>
<g>
</g>
</svg>
