<svg version="1.1" id="Layer_1" xmlns:x="ns_extend;" xmlns:i="ns_ai;" xmlns:graph="ns_graphs;" xmlns="http://www.w3.org/2000/svg" xmlns:xlink="http://www.w3.org/1999/xlink" x="0px" y="0px" viewBox="0 0 345.5 54" style="enable-background:new 0 0 345.5 54;" xml:space="preserve">
 <style type="text/css">
  .st0{fill:#E3224F;}
	.st1{fill:#3A3A40;}
 </style>
 <metadata>
  <sfw xmlns="ns_sfw;">
   <slices>
   </slices>
   <sliceSourceBounds bottomLeftOrigin="true" height="54" width="345.5" x="27" y="-227.2">
   </sliceSourceBounds>
  </sfw>
 </metadata>
 <g>
  <path class="st0" d="M45.1,41.4c-1-2.8-2.2-5-3.4-6.8c-1.2-1.8-2.6-2.9-4.2-3.5c-1.5-0.6-3.1-0.5-4.9,0.2c-3.1,1.2-5.1,3.7-5.9,7.2
		c-0.7,3.2-0.5,7.4,0.7,12.4c-0.4,0-0.7,0-1.1,0c-1.2,0-2.4-0.1-3.6-0.3c-1-3.4-1.5-6.5-1.5-9.4c0-2.2,0.3-3.7,1.6-9.3
		c1.2-5.1,1.7-8,1.7-11.4c0-1.3-0.1-2.6-0.3-4c-0.4-3.5-1.4-7.2-2.8-11.1c-0.1-0.2-0.1-0.4-0.2-0.7c1.6-0.4,3.3-0.6,5-0.6
		c2,0,3.9,0.2,5.8,0.7c-2.3,3.2-3.4,6.2-3.4,9.1c0.1,3.6,2,6.9,6,9.8c5,3.6,9,7.4,11.7,10.9c0.5,0.7,0.9,1.3,1.4,2
		C47.1,38.4,46.2,40,45.1,41.4z M38.5,47.6c-0.1-0.9-0.3-1.8-0.5-2.6c-0.2-1-1.2-1.6-2.2-1.5l0.1,0.2l-0.1-0.2
		c-1,0.3-1.6,1.4-1.4,2.4c0.1,0.7,0.3,1.5,0.4,2.3c0.1,0.4,0.1,0.7,0.1,1.1c-1.2,0.5-2.6,0.9-3.9,1.2c-1-4.3-1.3-7.7-0.9-10.3
		c0.4-2.8,1.8-4.6,3.8-5.4c0.9-0.4,1.8-0.3,2.6,0.1c0.9,0.5,1.8,1.4,2.6,2.8c1,1.6,2,3.9,2.9,6.9C41.2,45.8,39.9,46.7,38.5,47.6z
		 M9.6,42.2c0-2,0.9-3.9,2.8-6.7c0-0.1,0.1-0.2,0.3-0.4c0.4-0.6,1.2-1.6,1.5-2c0.7-0.9,1.1-1.7,1.4-2.5c0.4-1.1,0.5-2.2,0.2-3.1
		c-0.3-0.9-0.9-1.8-2-2.6c-1.8-1.2-3.8-1.5-5.9-1.1c-1.5,0.4-3.1,1.1-4.8,2.2c0.1-2.6,0.8-5,1.8-7.3c0.5,0.4,1,0.7,1.5,0.8
		c1.8,0.7,3.8,0.6,5.7-0.5c1.2-0.7,2-1.5,2.4-2.6c0.4-1,0.4-2.2,0.1-3.4c-0.4-1.2-0.7-1.8-2-4.1c1.6-1.2,3.4-2.1,5.2-2.9
		c0.1,0.3,0.2,0.5,0.3,0.8c1.3,3.7,2.2,7.2,2.6,10.4c0.1,1.2,0.2,2.4,0.2,3.5c0,2.9-0.4,5.6-1.6,10.5c-1.4,5.8-1.7,7.5-1.7,10.1
		c0,2.7,0.4,5.5,1.1,8.3c-3.4-1.2-6.4-3.1-8.9-5.6C9.6,43.5,9.6,42.8,9.6,42.2z M6.2,39.5c-1.6-2.7-2.7-5.7-3.1-9
		c1.6-1.4,3.1-2.3,4.3-2.8c1.8-0.7,3.1-0.6,4.2,0.1c0.4,0.2,0.5,0.4,0.5,0.5c0.1,0.1,0,0.3-0.1,0.7c-0.1,0.4-0.5,0.9-1,1.8
		c-0.2,0.3-0.9,1.3-1.3,1.9c-0.1,0.2-0.3,0.4-0.4,0.4C7.7,35.6,6.6,37.6,6.2,39.5z M9.6,11.4c0.9,1.5,1.1,1.9,1.3,2.6
		c0.1,0.4,0.1,0.8,0.1,1c-0.1,0.2-0.4,0.4-0.8,0.7c-0.7,0.4-1.2,0.5-1.9,0.4c-0.6-0.1-1.2-0.4-1.8-0.8C7.4,13.9,8.4,12.5,9.6,11.4z
		 M38.9,8c-0.4,0.7-0.7,1.5-0.8,2.5c-0.4,2.6,0.6,5.3,2.7,8c1.9,2.5,4.9,5,8.8,7.6c0,0.5,0.1,1,0.1,1.6c0,1.5-0.1,3.1-0.4,4.5
		c-2.9-3.8-7.1-7.7-12.3-11.4c-3.3-2.3-4.7-4.9-4.4-7.8c0.2-2,1.3-4.2,3.2-6.6C36.9,6.8,38,7.4,38.9,8z M41.8,11
		c0-0.3,0.1-0.4,0.1-0.7c3.1,2.8,5.4,6.4,6.6,10.4c-2.1-1.6-3.7-3.2-4.9-4.7C42.3,14.2,41.6,12.5,41.8,11z M50.4,38.1
		c0.1-0.4,0.3-0.7,0.4-1.1c0-0.1,0.1-0.1,0.1-0.2c1-2.8,1.6-5.9,1.6-9.1c0-3.3-0.6-6.5-1.8-9.4c-0.1-0.2-0.1-0.4-0.2-0.6
		c-1.2-3-3-5.8-5.2-8c-0.1-0.1-0.1-0.1-0.2-0.2C45,9.2,44.8,9,44.6,8.8c-0.1-0.1-0.3-0.3-0.4-0.4c-0.1-0.1-0.4-0.4-0.5-0.5
		s-0.3-0.2-0.4-0.4c-0.2-0.1-0.4-0.4-0.6-0.5c-0.1-0.1-0.3-0.2-0.4-0.4c-0.2-0.1-0.4-0.3-0.7-0.5C41.5,6.1,41.3,6,41.2,6
		c-1.1-0.7-2.2-1.4-3.4-2c0,0,0,0-0.1,0c-0.1-0.1-0.2-0.1-0.3-0.1c-0.3-0.1-0.5-0.2-0.8-0.4c-0.1-0.1-0.3-0.1-0.4-0.1
		C36,3.3,35.8,3.1,35.5,3C35.3,3,35.2,2.9,35,2.8c-0.2-0.1-0.4-0.1-0.7-0.2c-0.1-0.1-0.3-0.1-0.5-0.1c-0.1,0-0.2-0.1-0.3-0.1
		c-2.3-0.7-4.7-1-7.2-1c-2.3,0-4.7,0.3-6.8,0.9c-0.1,0-0.2,0.1-0.4,0.1c-0.3,0.1-0.6,0.1-0.9,0.3c-0.1,0.1-0.4,0.1-0.5,0.1
		C17.4,2.8,17.2,3,16.9,3c-0.1,0-0.2,0.1-0.3,0.1c-2,0.8-3.9,1.9-5.7,3.1c-0.1,0-0.1,0.1-0.1,0.1c-0.4,0.3-0.9,0.7-1.3,1
		C9.4,7.4,9.3,7.5,9.3,7.6C8.9,7.9,8.5,8.2,8.2,8.5C8.1,8.6,8,8.6,8,8.7c-1.4,1.5-2.6,2.9-3.7,4.5c0,0.1-0.1,0.1-0.1,0.1
		c-0.3,0.4-0.6,0.9-0.8,1.3c-0.1,0.1-0.1,0.2-0.1,0.3c-0.3,0.5-0.5,1-0.8,1.5c0,0.1-0.1,0.1-0.1,0.1c-0.4,1-0.9,2-1.2,3.1v0.1
		c0,0.1,0,0.1-0.1,0.1c-0.1,0.1-0.1,0.3-0.1,0.5C0.4,22.8,0,25.2,0,27.6c0,2.5,0.4,4.9,1,7.2c0.1,0.1,0.1,0.3,0.1,0.5
		c0,0.1,0,0.1,0.1,0.1v0.1c1,3.2,2.6,6.1,4.7,8.7L6,44.4c0,0,0,0,0,0.1c0.1,0.1,0.1,0.1,0.1,0.1c0.1,0.1,0.1,0.1,0.2,0.3
		c0.2,0.2,0.4,0.4,0.6,0.7c0.1,0.1,0.2,0.2,0.4,0.4c0.2,0.2,0.4,0.4,0.6,0.7C8,46.8,8.1,46.8,8.2,47c0.2,0.2,0.4,0.4,0.7,0.6
		c0.1,0.1,0.2,0.2,0.4,0.3c0.3,0.2,0.5,0.4,0.8,0.7c0.1,0.1,0.1,0.1,0.2,0.1C12,50,14,51.2,16.1,52c0.2,0.1,0.4,0.1,0.6,0.2
		c2.9,1.1,6.1,1.8,9.4,1.8c3.2,0,6.3-0.6,9.1-1.6c0.1,0,0.1,0,0.1-0.1c0.5-0.2,1-0.4,1.5-0.6c0.1-0.1,0.2-0.1,0.4-0.1
		c0.5-0.2,1-0.5,1.5-0.8h0.1c1.5-0.9,2.9-1.8,4.2-2.9c0.1-0.1,0.1-0.1,0.2-0.1c0.1-0.1,0.1-0.1,0.1-0.1c0.4-0.4,0.9-0.8,1.3-1.2
		l0.1-0.1c0.4-0.4,0.8-0.8,1.2-1.2c0.1-0.1,0.1-0.1,0.1-0.1c1.2-1.5,2.4-3.1,3.3-4.8c0.1-0.1,0.1-0.1,0.1-0.2
		c0.1-0.1,0.1-0.1,0.1-0.2c0.1-0.3,0.3-0.6,0.4-0.9C50.3,38.4,50.4,38.2,50.4,38.1z">
  </path>
  <path class="st1" d="M91.6,44.4c-8.1,0-14.1-6.1-14.1-14.2c0-8,6-14.1,14.1-14.1c8.1,0,14,6,14,14.1
		C105.6,38.4,99.7,44.4,91.6,44.4z M106.5,12.5l-0.6,6.4c-3.2-4.4-8.4-7.2-14.7-7.2C80.8,11.8,73,19.6,73,30.2s7.8,18.5,18.3,18.5
		c6.2,0,11.4-2.8,14.7-7.1l0.5,6.3h3.7V12.5H106.5z">
  </path>
  <rect x="121.9" class="st1" width="4.5" height="48.1">
  </rect>
  <path class="st1" d="M152.2,43.9c-5.1,0-7.9-2.8-7.9-7.9V16.6h11.5v-4.1h-11.5V5.7h-0.8l-9.8,10.1v0.9h6.1v19.6
		c0,7.4,4.5,11.8,11.8,11.8h4.5v-4.1H152.2z">
  </path>
  <path class="st1" d="M178.9,44.4c-8.1,0-14.1-6.1-14.1-14.2c0-8,6-14.1,14.1-14.1c8.1,0,14,6,14,14.1
		C192.9,38.4,187,44.4,178.9,44.4z M193.8,12.5l-0.6,6.4c-3.2-4.4-8.4-7.2-14.7-7.2c-10.4,0-18.3,7.9-18.3,18.5s7.8,18.5,18.3,18.5
		c6.2,0,11.4-2.8,14.7-7.1l0.5,6.3h3.7V12.5H193.8z">
  </path>
  <path class="st1" d="M247.5,11.8c-5.3,0-9.8,2.8-12.3,7.4c-1.8-4.5-5.8-7.4-11-7.4c-4.8,0-9.1,2.4-11.6,6.2l-0.8-5.5h-3.3V48h4.5
		V28c0.1-7,4.5-12.2,10.3-12.2c5.5,0,8.7,4.1,8.7,10.9V48h4.3V28c0.1-7,4.5-12.2,10.3-12.2c5.4,0,8.7,4.2,8.7,10.9V48h4.5V25.5
		C259.8,17.4,255,11.8,247.5,11.8z">
  </path>
  <path class="st1" d="M271.1,48h4.5V12.6h-4.5V48z M270.7,5.9h5.1V0.3h-5.1V5.9z">
  </path>
  <path class="st1" d="M303,12.4c-5.3,0-9.3,2.2-11.7,6.2l-0.8-6.1h-3.2V48h4.5V28.6c0-7.2,4.1-11.9,10.9-11.9h3.5v-4.3H303z">
  </path>
  <path class="st1" d="M326.9,44.4c-8.1,0-14.1-6.1-14.1-14.2c0-8,6-14.1,14.1-14.1c8.1,0,14,6,14,14.1
		C340.9,38.4,335,44.4,326.9,44.4z M341.8,12.5l-0.6,6.4c-3.2-4.4-8.4-7.2-14.7-7.2c-10.4,0-18.3,7.9-18.3,18.5s7.8,18.5,18.3,18.5
		c6.2,0,11.4-2.8,14.7-7.1l0.5,6.3h3.7V12.5H341.8z">
  </path>
 </g>
</svg>