<svg id="Layer_1" data-name="Layer 1" xmlns="http://www.w3.org/2000/svg" viewBox="0 0 512 84.8"><defs><style>.cls-1{fill:#875de1;}.cls-2{fill:#5525ac;}</style></defs><path class="cls-1" d="M496.14,42.88a64.52,64.52,0,0,1-1.83,15.93,37.92,37.92,0,0,1-5.5,12.47,25.8,25.8,0,0,1-9,8.13,24.2,24.2,0,0,1-8.69,2.66c-8.14-7.45-4.67-28.35,3.95-29.36-3.75,10.24,1.06,16.54,5.13,16.9,8.5.77,16.39-13.55,15.83-31C496.11,40,496.14,41.42,496.14,42.88Z"/><path class="cls-2" d="M501,71.41c-8.73,9.6-21.54,15.32-27.69,12.19a8.77,8.77,0,0,1-2.17-1.53,24.2,24.2,0,0,0,8.69-2.66,25.8,25.8,0,0,0,9-8.13,37.92,37.92,0,0,0,5.5-12.47,64.52,64.52,0,0,0,1.83-15.93c0-1.46,0-2.89-.12-4.3v0a55.36,55.36,0,0,0-.87-8.16C492.91,18.09,486,3.69,479.57,0a34.84,34.84,0,0,1,4.52,1.53.36.36,0,0,1,.18.07,46.24,46.24,0,0,1,24.8,25C515,41.21,511.78,59.56,501,71.41Z"/><path class="cls-1" d="M459.49,32.08c3.75-10.23-1.05-16.53-5.12-16.89-8.22-.75-15.87,12.61-15.87,29.27,0-.52,0-1,0-1.58a65.25,65.25,0,0,1,1.89-16.13A39.68,39.68,0,0,1,445.89,14a26.78,26.78,0,0,1,9.05-8.42,23.44,23.44,0,0,1,8.61-2.77C471.55,10.33,468.08,31.08,459.49,32.08Z"/><path class="cls-2" d="M455,84.8c-1.06-.3-2.1-.61-3.11-1l-.27-.1L451,83.5l-.64-.27a46.42,46.42,0,0,1-24.84-25.08c-4.49-11-3.74-24.26,1.61-35.17.2-.44.42-.85.64-1.27.45-.84.92-1.67,1.45-2.47a49.62,49.62,0,0,1,3.1-4.35c.37-.45.76-.9,1.16-1.36l.14-.15c.07-.07.13-.16.2-.23,8.74-9.44,21.4-15.06,27.49-12a10.18,10.18,0,0,1,2.27,1.62,23.44,23.44,0,0,0-8.61,2.77A26.78,26.78,0,0,0,445.89,14a39.68,39.68,0,0,0-5.54,12.76,65.25,65.25,0,0,0-1.89,16.13c0,.54,0,1.06,0,1.58s0,.94,0,1.41a48.92,48.92,0,0,0,.41,5.34c.05.57.13,1.13.23,1.71s.15,1,.24,1.49c0,.23.08.45.13.68.22,1.27.5,2.5.81,3.72s.65,2.37,1,3.5a2.91,2.91,0,0,0,.12.35C444.63,72.5,450,81.91,455,84.8Z"/><path class="cls-2" d="M368.79,25.59V53.92H345.74V38.09c0-12.83-9-20-20-20-12.19,0-16.26,7.26-16.26,19.26V59.86H335V84.79l10.77-4.5V59.86l34.41-.07V20.58ZM335,53.92H313.18V37.86c0-7,3.72-13.51,9.77-13.51,8.5,0,12,4.21,12,12.76Z"/><path class="cls-2" d="M358.84,13.94h0a7,7,0,1,0-7-7,7,7,0,0,0,7,7"/><rect class="cls-2" x="225.51" y="74.69" width="24.62" height="6.28"/><rect class="cls-2" x="197.69" y="4.49" width="27.61" height="6.28"/><path class="cls-2" d="M285.36,54H266a4.15,4.15,0,0,1-4.14-4.14V44.88l0-.22c0-.27,0-.54,0-.82V27.19H250.67V49.81A4.15,4.15,0,0,1,246.53,54H229.41a4.15,4.15,0,0,1-4.14-4.14V44.88l0-.22c0-.27,0-.54,0-.82V27.19H214.85V49.81A4.15,4.15,0,0,1,210.71,54H193.6a8.42,8.42,0,0,1-8.6-8.36V41.52h0v-.3a21,21,0,0,0-21.07-21.06H137.19l19-19-12.86.38L124.87,20l4.12,6h32.92a15.22,15.22,0,0,1,15,15.23A12.76,12.76,0,0,1,164,53.89L110,54a4.15,4.15,0,0,1-4.15-4.14V44.7c0-.29,0-.57,0-.86V22.1l-9,4.38V49.81A4.14,4.14,0,0,1,92.74,54h-10a4.15,4.15,0,0,1-4.15-4.14V44.66c0-.27,0-.54,0-.82V28.69h-9V49.81A4.15,4.15,0,0,1,65.54,54H55.42a4.14,4.14,0,0,1-4.14-4.14V28.69H40.8V59.11a18.34,18.34,0,0,1-36.68,0V29.05H0V58A26.42,26.42,0,0,0,26.39,84.4C40.64,84.4,50.72,73.25,51.25,59l0-.65.57.31a9.83,9.83,0,0,0,4.6,1.15h9.22c4.14,0,5.08-1.59,8.07-4.47l.35-.33.27.4a9.8,9.8,0,0,0,8.18,4.4H92.87c4.14,0,5.08-1.59,8.07-4.47l.36-.33.26.4a9.8,9.8,0,0,0,8.18,4.4h56.93a18.77,18.77,0,0,0,15-7.9l.29-.41.21.45a13.49,13.49,0,0,0,12,7.86h16.72a15.88,15.88,0,0,0,11.06-4.47L220.76,55l.27.4a9.77,9.77,0,0,0,8.17,4.4h17.47c4.13,0,7.31-1.59,10.31-4.47l.35-.33.27.4a9.78,9.78,0,0,0,8.18,4.4h30.8V20.76l-11.22,5Z"/><path class="cls-2" d="M275.62,84.79h.15a5.8,5.8,0,0,0,5.8-5.8v-.15a5.8,5.8,0,0,0-5.8-5.8h-.15a5.8,5.8,0,0,0-5.8,5.8V79a5.8,5.8,0,0,0,5.8,5.8"/></svg>