<svg height="512" viewBox="0 0 64 64" width="512" xmlns="http://www.w3.org/2000/svg"><g id="Fill_Outline" data-name="Fill Outline"><g id="Color"><g><path d="m32 61c-8.411 0-15-12.738-15-29s6.589-29 15-29 15 12.738 15 29-6.589 29-15 29zm0-54c-5.2 0-11 10.268-11 25s5.8 25 11 25 11-10.268 11-25-5.8-25-11-25z" fill="#93999a"/><circle cx="32" cy="32" fill="#57b7eb" r="7"/><g fill="#d0d8da"><path d="m31 5c4.772 0 8.956 4.1 11.685 10.622.581-.063 1.154-.112 1.715-.141-2.679-7.588-7.189-12.481-12.4-12.481-4.561 0-8.584 3.751-11.313 9.773 2.67-4.84 6.281-7.773 10.313-7.773z"/><path d="m43.9 49h.325a49.725 49.725 0 0 0 2.775-17 53.566 53.566 0 0 0 -1.425-12.538c-.489 0-1 .028-1.519.066a52.037 52.037 0 0 1 1.944 14.472 51.526 51.526 0 0 1 -2.1 15z"/></g><g><g fill="#c4f236"><path d="m42.648 25.868a45.164 45.164 0 0 0 -.99-5.546c-.7-.447-1.419-.886-2.158-1.312s-1.47-.823-2.2-1.207a45.187 45.187 0 0 0 -5.3 1.916 52 52 0 0 1 10.648 6.149z"/><path d="m26.7 17.8a54.985 54.985 0 0 1 5.3-2.421 45.375 45.375 0 0 0 -7.07-2.167 28.67 28.67 0 0 0 -1.606 3.776q1.631.312 3.376.812z"/><path d="m46.4 23.689a55.223 55.223 0 0 1 .548 5.8q1.303 1.256 2.384 2.511a28.433 28.433 0 0 0 2.468-3.283 45.545 45.545 0 0 0 -5.4-5.028z"/><path d="m51.8 35.283c2.38 3.734 3.076 7.1 1.855 9.217-2.6 4.506-14.392 4.392-27.151-2.974s-18.756-17.52-16.155-22.026c1.222-2.116 4.486-3.2 8.91-3a34.682 34.682 0 0 1 1.521-3.932c-6.475-.591-11.64 1.032-13.895 4.932-4.205 7.284 3.532 19.359 17.615 27.49s28.409 8.794 32.615 1.51c2.254-3.9 1.073-9.187-2.675-14.5a34.7 34.7 0 0 1 -2.64 3.283z"/></g><path d="m37.5 22.474a52.7 52.7 0 0 1 5.148 3.394c-.1-.848-.227-1.664-.364-2.468q-1.806-1.245-3.784-2.39c-1.4-.809-2.809-1.539-4.213-2.2-.754.281-1.513.573-2.287.907a52.666 52.666 0 0 1 5.5 2.757z" fill="#a1d51c"/><path d="m26.7 17.8c.769-.4 1.535-.77 2.3-1.126a43.932 43.932 0 0 0 -5.025-1.391c-.226.549-.448 1.109-.655 1.7q1.635.317 3.38.817z" fill="#a1d51c"/><path d="m49.332 32c.431-.5.824-.994 1.2-1.486a44.35 44.35 0 0 0 -3.767-3.657c.077.865.142 1.739.18 2.631q1.306 1.257 2.387 2.512z" fill="#a1d51c"/><path d="m53.136 33.716c-.424.524-.869 1.047-1.34 1.567 2.38 3.734 3.076 7.1 1.855 9.217-2.6 4.506-14.392 4.392-27.151-2.974s-18.752-17.52-16.151-22.026c1.222-2.116 4.486-3.2 8.91-3 .2-.632.422-1.241.649-1.838-6.24-.575-11.306.844-13.693 4.329-2.494 7.358 5.123 18.4 18.285 26 13.724 7.924 27.674 8.752 32.269 2.049 1.251-3.748-.186-8.54-3.633-13.324z" fill="#a1d51c"/></g><g><path d="m41.658 43.678a45.164 45.164 0 0 0 .99-5.546 52.7 52.7 0 0 1 -5.148 3.394c-12.759 7.366-24.549 7.48-27.151 2.974-1.835-3.18.627-9.171 6.708-15.012a55.223 55.223 0 0 1 .548-5.8c-9.564 7.612-14.175 16.827-10.72 22.812 4.206 7.284 18.532 6.621 32.615-1.51.739-.426 1.455-.865 2.158-1.312z" fill="#fcbc04"/><path d="m57.115 17.5c-4.206-7.284-18.532-6.621-32.615 1.51-.738.426-1.455.865-2.158 1.312a45.354 45.354 0 0 0 -.99 5.546 52.7 52.7 0 0 1 5.148-3.394c12.759-7.367 24.549-7.48 27.151-2.974 1.836 3.18-.627 9.172-6.708 15.012a55.223 55.223 0 0 1 -.548 5.8c9.564-7.612 14.175-16.827 10.72-22.812z" fill="#f9e109"/><path d="m55.115 19.5c-4.206-7.284-18.532-6.621-32.615 1.51-.119.068-.23.142-.348.211a45.417 45.417 0 0 0 -.8 4.647 52.7 52.7 0 0 1 5.148-3.394c12.759-7.367 24.549-7.48 27.151-2.974 1.836 3.18-.627 9.172-6.708 15.012a55.223 55.223 0 0 1 -.548 5.8c1.069-.851 2.066-1.724 3.007-2.608 6.044-6.48 8.498-13.388 5.713-18.204z" fill="#fcbc04"/></g><g fill="#aae1f9"><circle cx="33.536" cy="30.464" r="2"/><path d="m56 13a4.993 4.993 0 0 0 -1.8 9.654 6.175 6.175 0 0 0 -.072-1.869 1.97 1.97 0 0 1 .948-2.11l.028-.017a1.992 1.992 0 0 1 2.944 1.29 9.787 9.787 0 0 1 .183 2.5 4.986 4.986 0 0 0 -2.231-9.448z"/><path d="m5.949 19.941a1.968 1.968 0 0 1 2.9-1.3l.086.05a1.929 1.929 0 0 1 .933 2.071 5.584 5.584 0 0 0 -.109.907 5.01 5.01 0 1 0 -4-.216 9.336 9.336 0 0 1 .19-1.512z"/></g><path d="m30.05 33.95a7 7 0 0 1 -1.267-8.167 7 7 0 1 0 9.434 9.434 7 7 0 0 1 -8.167-1.267z" fill="#4891d3"/><path d="m60.5 19a5.5 5.5 0 0 1 -5.5-5.5c0-.135.011-.268.02-.4a4.99 4.99 0 0 0 -.816 9.555 6.175 6.175 0 0 0 -.072-1.869 1.97 1.97 0 0 1 .948-2.11l.028-.017a1.992 1.992 0 0 1 2.944 1.29 9.787 9.787 0 0 1 .183 2.5 5 5 0 0 0 2.656-3.47c-.13.01-.259.021-.391.021z" fill="#57b7eb"/><path d="m12 18a6 6 0 0 1 -5.979-5.589 4.98 4.98 0 0 0 -.26 9.037 9.336 9.336 0 0 1 .188-1.507 1.968 1.968 0 0 1 2.9-1.3l.086.05a1.929 1.929 0 0 1 .933 2.071 5.584 5.584 0 0 0 -.109.907 5 5 0 0 0 3.141-3.739 6.138 6.138 0 0 1 -.9.07z" fill="#57b7eb"/></g></g><g id="Outline_copy" data-name="Outline copy"><g fill="#434951"><path d="m37.657 37.656a8 8 0 0 0 -9.457-12.692 1 1 0 0 0 .952 1.76 6 6 0 0 1 7.1 9.518 6 6 0 0 1 -8.486 0 6.035 6.035 0 0 1 -1.034-7.095 1 1 0 1 0 -1.759-.951 8.044 8.044 0 0 0 1.379 9.46 8 8 0 0 0 11.314 0z"/><path d="m35.657 32.586a3 3 0 1 0 -2.122.878 3.007 3.007 0 0 0 2.123-.878zm-2.828-1.414a1 1 0 1 1 1.414 0 1 1 0 0 1 -1.414 0z"/><path d="m62 18a6 6 0 0 0 -11.677-1.927c-5.032-1.485-14.095-.373-24.323 5.534-1.136.656-2.235 1.353-3.322 2.094q.235-1.4.553-2.749c.58-.364 1.163-.727 1.769-1.076 8.339-4.815 17.174-7.145 23.632-6.234a1 1 0 0 0 .279-1.981 24.5 24.5 0 0 0 -5.085-.135c-3.006-6.144-7.184-9.526-11.826-9.526a1 1 0 0 0 0 2c3.62 0 7.1 2.805 9.7 7.742-.687.094-1.386.216-2.093.354-2.181-3.882-4.925-6.096-7.607-6.096-2.83 0-5.731 2.461-7.958 6.751q-.44.846-.877 1.87c-.274.642-.538 1.328-.785 2.038-.376 1.08-.716 2.232-1.009 3.424v.021a50 50 0 0 0 -1.371 11.896c0 1.317.064 2.626.158 3.926a40.12 40.12 0 0 1 -4.144-3.926c.537-.587 1.106-1.181 1.736-1.786a1 1 0 0 0 .306-.679 54.294 54.294 0 0 1 .539-5.694 44.554 44.554 0 0 1 1.616-7.032 33.877 33.877 0 0 1 1.476-3.819c1.93-4.175 4.415-7.044 7.187-8.3a1 1 0 1 0 -.823-1.822c-3.066 1.384-5.772 4.379-7.867 8.655a20.888 20.888 0 0 0 -8.3.911 5.984 5.984 0 1 0 -7.118 9.583c.016 3.068 1.251 6.494 3.6 9.993-3.689 5.517-4.68 10.949-2.347 14.99 2.15 3.725 6.585 5.588 12.256 5.588.624 0 1.267-.03 1.919-.075 3.006 6.12 7.174 9.487 11.806 9.487s8.816-3.378 11.821-9.516c.636.043 1.263.071 1.873.071a20.723 20.723 0 0 0 5.35-.65 1 1 0 1 0 -.516-1.931c-4.138 1.105-9.79.579-15.782-1.422q1.324-.6 2.662-1.283c8.28 2.313 14.971 1.431 17.109-2.269 1.331-2.306.768-5.781-1.5-9.6.484-.556.934-1.114 1.366-1.675 2.988 4.712 3.677 9.137 1.866 12.275a7.612 7.612 0 0 1 -2.363 2.5 1 1 0 0 0 .561 1.828.991.991 0 0 0 .56-.172 9.589 9.589 0 0 0 2.974-3.156c2.322-4.022 1.48-9.336-2.343-15.012a19.755 19.755 0 0 0 3.553-8.945 5.943 5.943 0 0 0 2.809-5.043zm-14.307 19.91q.149-1.464.221-2.961c4.257-4.169 6.906-8.583 7.275-12.166 0-.011.009-.02.01-.031a7.2 7.2 0 0 0 -.088-2.17.985.985 0 0 1 .5-1.058 1 1 0 0 1 .91-.046.957.957 0 0 1 .556.679 8.791 8.791 0 0 1 .162 2.247v.037c-.233 4.693-3.76 10.359-9.546 15.469zm-4.057.367v-.027a54.14 54.14 0 0 0 .364-6.25 54.17 54.17 0 0 0 -.359-6.249 43.764 43.764 0 0 0 -1.667-7.965c.7-.107 1.386-.192 2.035-.241a44.869 44.869 0 0 1 1.4 6.292 54.086 54.086 0 0 1 .538 5.693c.035.814.057 1.636.057 2.47s-.022 1.656-.057 2.47a54.086 54.086 0 0 1 -.538 5.693 45.011 45.011 0 0 1 -1.4 6.3c-.649-.051-1.323-.125-2.037-.236a43.7 43.7 0 0 0 1.664-7.95zm-2.3-14.569c-1.091-.744-2.193-1.443-3.332-2.1s-2.309-1.253-3.508-1.831a39.384 39.384 0 0 1 5.5-1.627 39.377 39.377 0 0 1 1.336 5.558zm6.664 8.269c0-.855-.023-1.7-.059-2.531-.047-1.13-.136-2.248-.247-3.353q1.506 1.331 2.817 2.722a29.785 29.785 0 0 1 -2.511 3.162zm8-17.977a4 4 0 0 1 4 4 3.939 3.939 0 0 1 -.848 2.445c-.033-.241-.073-.476-.123-.706a2.937 2.937 0 0 0 -1.7-2.089 3.031 3.031 0 0 0 -2.75.159 2.968 2.968 0 0 0 -1.465 2.956 3.953 3.953 0 0 1 -1.114-2.765 4 4 0 0 1 4-4zm-2.918 9.225a13.051 13.051 0 0 1 -1.482 3.832 47.51 47.51 0 0 0 -4.282-3.9 47.575 47.575 0 0 0 -1.24-5.668 13.5 13.5 0 0 1 3.926.58 5.939 5.939 0 0 0 3.078 5.156zm-21.082-15.225c1.8 0 3.828 1.684 5.551 4.552a48.067 48.067 0 0 0 -5.551 1.761 47.547 47.547 0 0 0 -5.552-1.766c1.726-2.865 3.752-4.547 5.552-4.547zm-7.731 9.316q.348-1 .741-1.925c.153-.357.308-.7.463-1.022q1.866.441 3.791 1.085a57.89 57.89 0 0 0 -5.264 2.688c.092-.276.176-.559.269-.826zm-2.269 14.684a51.989 51.989 0 0 1 .3-5.577 50.968 50.968 0 0 1 4.7-3.083 51.994 51.994 0 0 1 4.982-2.528 52.059 52.059 0 0 1 5.018 2.528 50.894 50.894 0 0 1 4.692 3.079 52.205 52.205 0 0 1 .308 5.581 52.109 52.109 0 0 1 -.309 5.589 51.034 51.034 0 0 1 -4.691 3.071 53.011 53.011 0 0 1 -4.971 2.533 51.257 51.257 0 0 1 -5.029-2.533 51.763 51.763 0 0 1 -4.69-3.06 52.1 52.1 0 0 1 -.31-5.6zm4 10.393c1.14.657 2.31 1.255 3.506 1.831a39.665 39.665 0 0 1 -5.5 1.648c-.251-.785-.489-1.592-.7-2.434a1 1 0 0 0 -.491-.636 49.657 49.657 0 0 1 -9.354-7.636c.371-.537.772-1.085 1.227-1.649a48.188 48.188 0 0 0 11.312 8.876zm-13.627-5.471a47.275 47.275 0 0 0 4.309 3.928 47.564 47.564 0 0 0 1.244 5.678c-3.426-.068-5.838-1.018-6.71-2.528-.816-1.416-.585-3.938 1.157-7.078zm7.627 9.555c-.368-1.226-.688-2.5-.957-3.828.787.566 1.593 1.122 2.43 1.662.17.661.358 1.3.554 1.931-.703.106-1.381.186-2.027.235zm-.686-33c-.357.871-.7 1.77-1 2.718a46.325 46.325 0 0 0 -1.626 6.967 47.174 47.174 0 0 0 -4.287 3.913 11.743 11.743 0 0 1 -1.6-4.79 5.959 5.959 0 0 0 2.447-8.185 19.444 19.444 0 0 1 6.063-.626zm-11.314-.477a3.986 3.986 0 0 1 2.853 1.2l.023.028a3.976 3.976 0 0 1 -.016 5.557 2.937 2.937 0 0 0 -1.419-1.968l-.087-.05a2.967 2.967 0 0 0 -4.354 1.856 3.943 3.943 0 0 1 -1-2.623 4 4 0 0 1 4-4zm-1.243 8.51v-.013a8.3 8.3 0 0 1 .167-1.346.974.974 0 0 1 .562-.694.952.952 0 0 1 .863.045l.087.051a.927.927 0 0 1 .457.994 6.4 6.4 0 0 0 -.131 1.072.981.981 0 0 0 .022.254 13.444 13.444 0 0 0 2.191 6.744q-.722.829-1.363 1.661c-1.991-3.143-2.979-6.153-2.855-8.768zm25.243 38.49c-3.612 0-7.09-2.794-9.679-7.711.686-.094 1.385-.215 2.093-.355 2.173 3.866 4.911 6.066 7.586 6.066s5.422-2.209 7.6-6.086q1.063.208 2.1.348c-2.6 4.938-6.081 7.738-9.7 7.738zm5.545-8.542c-1.722 2.863-3.745 4.542-5.545 4.542s-3.819-1.675-5.539-4.531a47.253 47.253 0 0 0 5.555-1.775 47.565 47.565 0 0 0 5.529 1.764zm-.769-6.113c-12.892 6.712-25.363 7-29.025.655-2.018-3.495-.957-8.346 2.569-13.356a1.011 1.011 0 0 0 .124-.172 33.882 33.882 0 0 1 2.564-3.151c.009-.012.022-.021.031-.034a42.753 42.753 0 0 1 3.261-3.195c-.1.973-.176 1.959-.225 2.954-6.144 6.015-8.73 12.254-6.592 15.954 1.309 2.266 4.5 3.539 8.851 3.539 5.285 0 12.277-1.881 19.666-6.146 1.136-.656 2.238-1.356 3.332-2.1a39.613 39.613 0 0 1 -1.338 5.556c-.778-.171-1.579-.367-2.42-.611a1 1 0 0 0 -.798.107zm16.008-1.345c-.817 1.417-3.119 2.476-6.713 2.537a47.514 47.514 0 0 0 1.248-5.693 46.845 46.845 0 0 0 4.288-3.916c1.623 2.931 2.072 5.522 1.177 7.072z"/></g></g></g></svg>