<?xml version="1.0" encoding="iso-8859-1"?>
<!-- Generator: Adobe Illustrator 19.0.0, SVG Export Plug-In . SVG Version: 6.00 Build 0)  -->
<svg version="1.1" id="Capa_1" xmlns="http://www.w3.org/2000/svg" xmlns:xlink="http://www.w3.org/1999/xlink" x="0px" y="0px"
	 viewBox="0 0 512 512" style="enable-background:new 0 0 512 512;" xml:space="preserve">
<g>
	<polygon style="fill:#7D9BFF;" points="398.025,80.141 422.796,32.189 473.439,10.107 502,38.669 479.919,89.311 431.752,113.869 	
		"/>
	<path style="fill:#7D9BFF;" d="M399.589,410.342l10.94-10.94c6.221-6.221,16.308-6.221,22.529,0l56.35,56.35
		c20.963-36.289,15.027-83.864-17.843-113.74c-34.696-31.535-86.982-31.946-122.128-0.914
		c-40.022,35.337-41.446,96.493-4.272,133.667c30.039,30.039,75.732,34.861,110.813,14.494l-56.388-56.388
		C393.368,426.651,393.368,416.564,399.589,410.342z"/>
	<path style="fill:#7D9BFF;" d="M112.411,101.658l-10.94,10.94c-6.221,6.221-16.308,6.221-22.529,0l-56.35-56.35
		c-20.963,36.29-15.028,83.864,17.843,113.74c34.696,31.535,86.982,31.946,122.128,0.914c40.022-35.337,41.446-96.493,4.272-133.667
		C136.796,7.195,91.103,2.373,56.023,22.741l56.388,56.388C118.632,85.35,118.632,95.437,112.411,101.658z"/>
</g>
<polygon style="fill:#9BBEFF;" points="196.46,131.583 384.026,319.148 319.199,383.975 131.788,196.564 "/>
<path style="fill:#FF5A5A;" d="M282.034,278.24l-48.38-48.38l-68.541,27.151l-136.52,136.52c-24.789,24.789-24.789,64.981,0,89.77
	l0,0c24.789,24.789,64.981,24.789,89.77,0l136.52-136.52L282.034,278.24z"/>
<polygon style="fill:#F5B955;" points="254.883,346.781 282.034,278.24 233.654,229.859 165.112,257.011 "/>
<rect x="312.568" y="64.498" transform="matrix(-0.7071 -0.7071 0.7071 -0.7071 450.2258 537.424)" style="fill:#F0F0FA;" width="47.698" height="221.938"/>
<path d="M478.291,334.613c-24.876-22.61-58.094-30.727-88.971-24.312l-69.929-69.929l42.365-42.365
	c3.905-3.905,3.905-10.237,0-14.143c-3.906-3.905-10.236-3.905-14.143,0l-72.8,72.8l-19.585-19.585L398.024,94.283l19.585,19.585
	l-25.12,25.121c-3.905,3.905-3.905,10.237,0,14.142c3.906,3.905,10.236,3.905,14.143,0l31.072-31.072l46.757-23.839
	c2.064-1.052,3.698-2.789,4.625-4.913l22.081-50.643c1.643-3.769,0.812-8.16-2.096-11.068L480.51,3.036
	c-2.908-2.909-7.301-3.739-11.068-2.095l-50.643,22.082c-2.106,0.918-3.833,2.535-4.888,4.577l-24.058,46.57L271.521,192.502
	l-69.9-69.901c1.15-5.658,1.833-11.459,2.017-17.365c0.868-27.946-9.969-55.31-29.731-75.073
	C141.339-2.403,90.797-9.015,51.002,14.093c-2.686,1.559-4.494,4.276-4.896,7.355c-0.401,3.078,0.649,6.169,2.845,8.364L105.34,86.2
	c2.313,2.313,2.313,6.075,0,8.387l-10.94,10.94c-1.12,1.12-2.609,1.737-4.193,1.737s-3.073-0.617-4.193-1.737l-56.35-56.35
	c-2.199-2.198-5.305-3.249-8.375-2.844c-3.082,0.405-5.801,2.221-7.355,4.913c-11.4,19.735-15.839,43.08-12.5,65.735
	c3.41,23.136,14.873,44.589,32.276,60.406c19.391,17.624,43.847,26.455,68.315,26.453c7.213,0,14.424-0.783,21.51-2.319
	c0.484,1.076,1.157,2.087,2.04,2.971l41.131,41.131l-5.276,2.09c-1.27,0.502-2.423,1.26-3.389,2.226L21.521,386.46
	C7.643,400.338,0,418.789,0,438.416c0,19.626,7.643,38.078,21.521,51.956c13.879,13.878,32.33,21.521,51.957,21.521
	c19.626,0,38.078-7.643,51.956-21.521l136.521-136.52c0.966-0.966,1.723-2.119,2.226-3.389l2.09-5.276l44.126,44.126
	c-1.16,5.685-1.85,11.516-2.034,17.452c-0.868,27.946,9.969,55.31,29.731,75.073c19.58,19.579,45.65,29.775,71.982,29.775
	c17.467,0,35.053-4.49,50.923-13.705c2.686-1.559,4.494-4.276,4.896-7.355c0.401-3.078-0.649-6.169-2.845-8.364l-56.389-56.388
	c-2.313-2.313-2.313-6.075,0-8.387l10.94-10.94c1.12-1.12,2.609-1.737,4.193-1.737s3.073,0.617,4.193,1.737l56.35,56.35
	c2.198,2.198,5.301,3.247,8.375,2.844c3.082-0.405,5.801-2.221,7.355-4.913c11.4-19.735,15.839-43.08,12.5-65.735
	C507.157,371.883,495.694,350.43,478.291,334.613z M430.05,39.935l41.138-17.937L490.11,40.92l-13.602,31.195l-19.192-19.192
	c-3.905-3.905-10.235-3.905-14.143,0c-3.905,3.905-3.905,10.237,0,14.142l19.708,19.709l-29.196,14.885l-23.421-23.422
	L430.05,39.935z M47.16,162.587c-24.934-22.662-33.088-58.463-21.61-89.239l46.321,46.321c4.897,4.897,11.409,7.595,18.335,7.595
	c6.927,0,13.438-2.697,18.336-7.595l10.94-10.94c4.897-4.898,7.595-11.41,7.595-18.336c0-6.927-2.697-13.438-7.595-18.336
	l-46.4-46.399c29.612-11.221,63.711-4.324,86.683,18.647c16.109,16.109,24.591,37.527,23.884,60.309
	c-0.707,22.763-10.546,43.642-27.704,58.791C124.747,190.951,77.981,190.6,47.16,162.587z M144.061,194.694
	c8.93-4.074,17.412-9.489,25.121-16.296c11.068-9.772,19.68-21.468,25.536-34.415l62.661,62.662l-16.399,16.399l-0.255-0.255
	c-2.82-2.819-7.046-3.696-10.754-2.226l-43.005,17.036L144.061,194.694z M111.291,476.23c-10.101,10.1-23.529,15.663-37.813,15.663
	s-27.714-5.563-37.814-15.664c-20.851-20.851-20.851-54.777,0-75.627l129.429-129.429l56.618,56.618
	c1.953,1.953,4.512,2.929,7.071,2.929s5.118-0.976,7.071-2.929c3.905-3.905,3.905-10.237,0-14.143l-52.935-52.935l48.31-19.137
	l39.09,39.089l-23.97,60.509L111.291,476.23z M274.295,324.928l17.036-43.005c1.469-3.708,0.594-7.934-2.226-10.754l-0.255-0.255
	l16.398-16.399l62.76,62.76c-8.956,4.077-17.46,9.504-25.19,16.329c-11.048,9.754-19.648,21.425-25.504,34.344L274.295,324.928z
	 M486.45,438.652l-46.321-46.321c-4.897-4.897-11.409-7.595-18.335-7.595c-6.927,0-13.438,2.697-18.336,7.595l-10.94,10.94
	c-4.897,4.898-7.595,11.41-7.595,18.336c0,6.927,2.697,13.438,7.595,18.336l46.4,46.399c-29.611,11.222-63.71,4.325-86.683-18.647
	c-16.109-16.109-24.591-37.527-23.884-60.309c0.707-22.763,10.546-43.642,27.704-58.791c15.435-13.628,34.68-20.427,53.92-20.427
	c19.648,0,39.292,7.092,54.864,21.245C489.773,372.075,497.928,407.876,486.45,438.652z"/>
<path d="M369.12,162.37c-1.87,1.85-2.931,4.43-2.931,7.06c0,2.64,1.061,5.22,2.931,7.08c1.859,1.86,4.43,2.93,7.069,2.93
	c2.62,0,5.2-1.07,7.07-2.93c1.86-1.87,2.93-4.44,2.93-7.08c0-2.63-1.069-5.2-2.93-7.06c-1.87-1.87-4.44-2.94-7.07-2.94
	C373.55,159.43,370.979,160.5,369.12,162.37z"/>
<path d="M129.178,339.905L59.74,409.342c-3.905,3.905-3.905,10.237,0,14.143c1.953,1.953,4.512,2.929,7.071,2.929
	s5.118-0.976,7.071-2.929l69.438-69.438c3.905-3.905,3.905-10.237,0-14.143C139.414,335.999,133.084,335.999,129.178,339.905z"/>
<path d="M164.66,308.57c-2.631,0-5.21,1.06-7.07,2.92c-1.86,1.87-2.93,4.44-2.93,7.07c0,2.64,1.069,5.21,2.93,7.08
	c1.86,1.86,4.439,2.92,7.07,2.92c2.63,0,5.21-1.06,7.069-2.92c1.86-1.86,2.931-4.44,2.931-7.08c0-2.63-1.07-5.2-2.931-7.07
	C169.87,309.63,167.29,308.57,164.66,308.57z"/>
<g>
</g>
<g>
</g>
<g>
</g>
<g>
</g>
<g>
</g>
<g>
</g>
<g>
</g>
<g>
</g>
<g>
</g>
<g>
</g>
<g>
</g>
<g>
</g>
<g>
</g>
<g>
</g>
<g>
</g>
</svg>