<?xml version="1.0" encoding="iso-8859-1"?>
<!-- Generator: Adobe Illustrator 19.0.0, SVG Export Plug-In . SVG Version: 6.00 Build 0)  -->
<svg version="1.1" id="Capa_1" xmlns="http://www.w3.org/2000/svg" xmlns:xlink="http://www.w3.org/1999/xlink" x="0px" y="0px"
	 viewBox="0 0 512 512" style="enable-background:new 0 0 512 512;" xml:space="preserve">
<path style="fill:#FFCDAC;" d="M376.818,365.993L376.818,365.993c-11.117,0-20.129,9.012-20.129,20.129v-16.01
	c0-11.117-9.012-20.129-20.129-20.129l0,0c-11.117,0-20.129,9.012-20.129,20.129c0-11.117-9.012-20.129-20.129-20.129
	s-20.129,9.012-20.129,20.129v-76.026c0-11.117-9.012-20.129-20.129-20.129s-20.129,9.012-20.129,20.129v161.589l-24.287-39.85
	c-5.971-9.798-18.67-13.039-28.607-7.302l0,0c-9.583,5.532-13.274,17.521-8.463,27.485l31.858,65.986h190.532V386.122
	C396.947,375.006,387.935,365.993,376.818,365.993z"/>
<circle style="fill:#FF5A5A;" cx="255.99" cy="37" r="27"/>
<g>
	<circle style="fill:#A5DC69;" cx="37" cy="255.99" r="27"/>
	<circle style="fill:#A5DC69;" cx="475" cy="255.99" r="27"/>
</g>
<g>
	<circle style="fill:#F5B955;" cx="410.86" cy="101.14" r="27"/>
	<circle style="fill:#F5B955;" cx="101.14" cy="101.14" r="27"/>
</g>
<path d="M376.818,355.993c-4.416,0-8.609,0.963-12.392,2.677c-4.514-10.954-15.302-18.687-27.866-18.687
	c-7.731,0-14.789,2.929-20.129,7.733c-5.34-4.804-12.398-7.733-20.129-7.733c-3.552,0-6.961,0.622-10.129,1.757v-47.654
	c0-16.613-13.516-30.129-30.129-30.129s-30.129,13.516-30.129,30.129v125.966l-5.748-9.431
	c-8.871-14.557-27.385-19.282-42.146-10.758c-14.041,8.106-19.518,25.893-12.468,40.493l31.857,65.986
	c1.725,3.572,5.295,5.655,9.013,5.655c1.458,0,2.939-0.32,4.34-0.997c4.974-2.401,7.059-8.379,4.658-13.353l-31.857-65.986
	c-2.521-5.22-0.563-11.578,4.458-14.477c5.278-3.047,11.896-1.358,15.067,3.846l24.287,39.85c2.333,3.827,6.928,5.635,11.242,4.424
	c4.315-1.211,7.297-5.146,7.297-9.628v-161.59c0-5.585,4.544-10.129,10.129-10.129s10.129,4.544,10.129,10.129v124.806
	c0,5.523,4.477,10,10,10s10-4.477,10-10v-48.78c0-5.585,4.544-10.129,10.129-10.129s10.129,4.544,10.129,10.129v7.195v41.584
	c0,5.523,4.477,10,10,10s10-4.477,10-10v-41.584v-7.195c0-5.585,4.544-10.129,10.129-10.129s10.129,4.544,10.129,10.129v16.01
	v12.894v19.876c0,5.523,4.477,10,10,10s10-4.477,10-10v-19.876v-12.894c0-5.585,4.544-10.129,10.129-10.129
	s10.129,4.544,10.129,10.129v115.871c0,5.523,4.477,10,10,10s10-4.477,10-10V386.122
	C406.947,369.51,393.431,355.993,376.818,355.993z"/>
<path d="M256.043,229.994c-35.341,0-64.092,28.752-64.092,64.093c0,5.523,4.477,10,10,10s10-4.477,10-10
	c0-24.313,19.78-44.093,44.093-44.093s44.092,19.78,44.092,44.093c0,5.523,4.477,10,10,10s10-4.477,10-10
	C320.136,258.746,291.384,229.994,256.043,229.994z"/>
<path d="M175.951,294.087c0-44.163,35.93-80.093,80.093-80.093c32.366,0,61.37,19.286,73.893,49.133
	c2.137,5.093,7.998,7.49,13.09,5.353c5.093-2.137,7.489-7.997,5.353-13.09c-15.647-37.297-51.891-61.396-92.335-61.396
	c-55.191,0-100.092,44.901-100.092,100.093c0,5.523,4.477,10,10,10S175.951,299.609,175.951,294.087z"/>
<path d="M346.137,283.743c-0.015,0-0.029,0-0.044,0c-5.522,0.024-9.98,4.52-9.957,10.043v0.3c0,5.523,4.477,10,10,10s10-4.477,10-10
	v-0.386C356.112,288.193,351.64,283.743,346.137,283.743z"/>
<path d="M245.987,72.619v55.518c0,5.523,4.477,10,10,10c5.523,0,10-4.477,10-10V72.619c15.557-4.374,27-18.679,27-35.616
	c0-20.402-16.598-37-37-37s-37,16.598-37,37C218.987,53.94,230.429,68.245,245.987,72.619z M255.987,20.004c9.374,0,17,7.626,17,17
	s-7.626,17-17,17s-17-7.626-17-17S246.613,20.004,255.987,20.004z"/>
<path d="M475,218.994c-16.937,0-31.241,11.443-35.616,27h-55.528c-5.523,0-10,4.477-10,10s4.477,10,10,10h55.528
	c4.375,15.557,18.679,27,35.616,27c20.402,0,37-16.598,37-37S495.402,218.994,475,218.994z M475,272.993c-9.374,0-17-7.626-17-17
	s7.626-17,17-17s17,7.626,17,17S484.374,272.993,475,272.993z"/>
<path d="M101.144,138.137c6.454,0,12.65-1.651,18.122-4.735l53.146,53.146c1.953,1.952,4.512,2.929,7.071,2.929
	s5.119-0.977,7.071-2.929c3.905-3.905,3.905-10.237,0-14.143l-53.146-53.146c3.084-5.472,4.735-11.669,4.735-18.122
	c0-9.883-3.849-19.175-10.837-26.163c-6.988-6.989-16.28-10.837-26.163-10.837c-9.883,0-19.174,3.849-26.163,10.837
	c-14.426,14.426-14.426,37.9,0,52.326C81.969,134.289,91.26,138.137,101.144,138.137z M89.123,89.117L89.123,89.117
	c3.211-3.211,7.479-4.979,12.021-4.979s8.81,1.768,12.021,4.979c3.211,3.211,4.979,7.479,4.979,12.021
	c0,4.54-1.767,8.807-4.977,12.018c-0.001,0.001-0.002,0.001-0.002,0.002c-0.001,0.001-0.001,0.002-0.002,0.003
	c-3.211,3.209-7.478,4.977-12.018,4.977c-4.541,0-8.81-1.768-12.021-4.979C82.495,106.53,82.495,95.745,89.123,89.117z"/>
<path d="M255.99,149.994c-2.64,0-5.21,1.07-7.07,2.93c-1.87,1.86-2.93,4.44-2.93,7.07s1.06,5.21,2.93,7.07
	c1.86,1.86,4.44,2.93,7.07,2.93c2.63,0,5.21-1.07,7.07-2.93c1.86-1.86,2.93-4.44,2.93-7.07s-1.07-5.21-2.93-7.07
	S258.62,149.994,255.99,149.994z"/>
<path d="M325,196.994c2.559,0,5.119-0.976,7.071-2.929l60.663-60.663c5.472,3.085,11.668,4.735,18.122,4.735
	c9.883,0,19.175-3.849,26.163-10.837c14.426-14.426,14.426-37.9,0-52.326c-6.988-6.989-16.28-10.837-26.163-10.837
	s-19.175,3.849-26.163,10.837c-6.989,6.988-10.837,16.28-10.837,26.163c0,6.454,1.651,12.65,4.735,18.122l-60.663,60.663
	c-3.905,3.905-3.905,10.237,0,14.143C319.881,196.018,322.441,196.994,325,196.994z M398.836,89.116
	c3.211-3.211,7.479-4.979,12.021-4.979s8.81,1.768,12.021,4.979l0,0c6.628,6.628,6.628,17.413,0,24.042
	c-3.211,3.211-7.479,4.979-12.021,4.979c-4.54,0-8.807-1.767-12.018-4.977c-0.001-0.001-0.001-0.002-0.002-0.002
	c-0.001-0.001-0.002-0.002-0.003-0.002c-3.209-3.211-4.977-7.478-4.977-12.018C393.856,96.596,395.625,92.328,398.836,89.116z"/>
<path d="M128,245.994H72.616c-4.375-15.557-18.679-27-35.616-27c-20.402,0-37,16.598-37,37s16.598,37,37,37
	c16.937,0,31.241-11.443,35.616-27H128c5.523,0,10-4.477,10-10S133.523,245.994,128,245.994z M37,272.993c-9.374,0-17-7.626-17-17
	s7.626-17,17-17s17,7.626,17,17S46.374,272.993,37,272.993z"/>
<g>
</g>
<g>
</g>
<g>
</g>
<g>
</g>
<g>
</g>
<g>
</g>
<g>
</g>
<g>
</g>
<g>
</g>
<g>
</g>
<g>
</g>
<g>
</g>
<g>
</g>
<g>
</g>
<g>
</g>
</svg>
