
<svg height="512" viewBox="0 0 64 64" width="512" xmlns="http://www.w3.org/2000/svg"><g id="Fill_Outline" data-name="Fill Outline"><g id="Color"><g><g><path d="m6 32h8a0 0 0 0 1 0 0v25a4 4 0 0 1 -4 4 4 4 0 0 1 -4-4v-25a0 0 0 0 1 0 0z" fill="#57b7eb"/><path d="m9 56v-18a4 4 0 0 1 4-4h1v-2h-8v25a3.984 3.984 0 0 0 6.662 2.966 3.987 3.987 0 0 1 -3.662-3.966z" fill="#4891d3"/><rect fill="#aae1f9" height="4" rx="2" width="14" x="3" y="28"/><path d="m6 40h8a0 0 0 0 1 0 0v17a4 4 0 0 1 -4 4 4 4 0 0 1 -4-4v-17a0 0 0 0 1 0 0z" fill="#c4f236"/><path d="m9 56v-16h-3v17a3.984 3.984 0 0 0 6.662 2.966 3.987 3.987 0 0 1 -3.662-3.966z" fill="#a1d51c"/><path d="m5 28a2 2 0 0 0 0 4h10a2 2 0 0 0 2-2h-10a2 2 0 0 1 -2-2z" fill="#57b7eb"/></g><g><path d="m37 10h4v10h-4z" fill="#f9e109"/><path d="m39 14v-4h-2v10h4v-4a2 2 0 0 1 -2-2z" fill="#fcbc04"/><path d="m50 14.34h6v4h-6z" fill="#f9e109" transform="matrix(.866 .5 -.5 .866 15.271 -24.311)"/><path d="m48 17.536h4v8h-4z" fill="#e59730" transform="matrix(.866 .5 -.5 .866 17.467 -22.115)"/><circle cx="39" cy="40" fill="#f9e109" r="22"/><path d="m46 55a22 22 0 0 1 -18.656-33.656 22 22 0 1 0 30.312 30.312 21.894 21.894 0 0 1 -11.656 3.344z" fill="#fcbc04"/><circle cx="39" cy="40" fill="#d0d8da" r="18"/><path d="m39 22a17.952 17.952 0 0 0 -14.129 6.871 17.983 17.983 0 0 1 25.258 25.258 17.988 17.988 0 0 0 -11.129-32.129z" fill="#93999a"/><path d="m51.728 52.728a18 18 0 0 1 -25.456-25.456z" fill="#93999a"/><circle cx="39" cy="40" fill="#f9e109" r="2"/><circle cx="31" cy="40" fill="#fcbc04" r="3"/><circle cx="47" cy="40" fill="#f9e109" r="3"/><path d="m46 55a22.009 22.009 0 0 1 -21.755-25.284 17.982 17.982 0 0 0 25.039 25.039 22.22 22.22 0 0 1 -3.284.245z" fill="#656b76"/><g fill="#fcbc04"><path d="m40.414 41.414-2.828-2.828a2 2 0 1 0 2.828 2.828z"/><path d="m54.982 15.175-.384.665a2 2 0 0 1 -2.732.732l-1.848-1.067-.618 1.067 5.2 3 2-3.464z"/></g></g><g><path d="m23 43.784v-3.784h-6v3.784a8 8 0 0 1 -1.14 4.116l-4.3 7.17a3.919 3.919 0 0 0 -.56 2.015 3.915 3.915 0 0 0 3.915 3.915h10.17a3.915 3.915 0 0 0 3.915-3.915 3.919 3.919 0 0 0 -.558-2.015l-4.3-7.17a8 8 0 0 1 -1.142-4.116z" fill="#57b7eb"/><path d="m16.6 53.455a4.187 4.187 0 0 1 .559-2.714l1.7-2.841a8 8 0 0 0 1.141-4.116 1.784 1.784 0 0 1 1.784-1.784h1.216v-2h-6v3.784a8 8 0 0 1 -1.14 4.116l-4.3 7.17a3.915 3.915 0 0 0 3.355 5.93h10.17a3.915 3.915 0 0 0 3.915-3.915h-8.253a4.19 4.19 0 0 1 -4.147-3.63z" fill="#4891d3"/><rect fill="#aae1f9" height="4" rx="2" width="12" x="14" y="36"/><path d="m21 51a2.828 2.828 0 0 0 -4 0 2.819 2.819 0 0 1 -3.3.5l-2.142 3.57a3.915 3.915 0 0 0 3.357 5.93h10.17a3.915 3.915 0 0 0 3.357-5.93l-2.742-4.57a2.8 2.8 0 0 0 -.7.5 2.828 2.828 0 0 1 -4 0z" fill="#c4f236"/><path d="m16.6 53.455a4.181 4.181 0 0 1 .451-2.494c-.015.015-.032.024-.047.039a2.819 2.819 0 0 1 -3.3.5l-2.146 3.57a3.915 3.915 0 0 0 3.357 5.93h10.17a3.915 3.915 0 0 0 3.915-3.915h-8.253a4.19 4.19 0 0 1 -4.147-3.63z" fill="#a1d51c"/><path d="m16 36a2 2 0 0 0 0 4h8a2 2 0 0 0 2-2h-8a2 2 0 0 1 -2-2z" fill="#57b7eb"/></g></g></g><g id="Outline_copy" data-name="Outline copy"><g fill="#434951"><path d="m39 47a1 1 0 0 0 1-1v-3.184a2.982 2.982 0 0 0 0-5.632v-7.184a1 1 0 0 0 -2 0v7.184a2.982 2.982 0 0 0 0 5.632v3.184a1 1 0 0 0 1 1zm0-8a1 1 0 1 1 -1 1 1 1 0 0 1 1-1z"/><path d="m43 40a4 4 0 1 0 4-4 4 4 0 0 0 -4 4zm6 0a2 2 0 1 1 -3-1.722v.722a1 1 0 0 0 2 0v-.722a1.993 1.993 0 0 1 1 1.722z"/><path d="m31 40a1 1 0 0 0 -1 1v.721a1.976 1.976 0 0 1 -.732-.721 1 1 0 1 0 -1.732 1 4 4 0 0 0 3.454 2h.01.007a4 4 0 1 0 -2.007-7.464 1 1 0 1 0 1 1.732 2 2 0 0 1 2 3.464v-.732a1 1 0 0 0 -1-1z"/><path d="m53.227 21.948.871-1.51a1 1 0 0 0 1.366-.366l2-3.464a1 1 0 0 0 -.366-1.366l-5.2-3a1 1 0 0 0 -1.366.366l-2 3.464a1 1 0 0 0 .366 1.366l-.827 1.432a22.812 22.812 0 0 0 -6.071-1.67v-.9a7 7 0 1 0 -6 0v.9a23.1 23.1 0 0 0 -16.867 11.236 1 1 0 1 0 1.728 1.007 20.986 20.986 0 1 1 11.49 30.479 1 1 0 1 0 -.634 1.9 22.99 22.99 0 0 0 21.51-39.87zm-1.459-7.474 3.464 2-1 1.732-3.464-2zm-1.134 3.964 1.732 1-.766 1.332c-.557-.365-1.128-.71-1.716-1.027zm-16.634-8.438a5 5 0 1 1 8 3.99v-2.99a1 1 0 0 0 0-2h-6a1 1 0 0 0 0 2v2.99a5 5 0 0 1 -2-3.99zm4 7.034v-6.034h2v6.025c-.332-.014-.665-.025-1-.025s-.667.019-1 .034z"/><path d="m39 59a19.021 19.021 0 0 0 19-19 18.781 18.781 0 0 0 -4.164-11.852 1 1 0 0 0 -1.561 1.252c.326.408.628.828.912 1.257l-1.7.98a1 1 0 1 0 1 1.732l1.694-.978a16.71 16.71 0 0 1 1.777 6.609h-1.958a1 1 0 0 0 0 2h1.949a16.837 16.837 0 0 1 -1.769 6.609l-1.69-.975a1 1 0 1 0 -1 1.732l1.7.979a17.143 17.143 0 0 1 -4.841 4.841l-.979-1.7a1 1 0 1 0 -1.732 1l.975 1.69a16.837 16.837 0 0 1 -6.613 1.773v-1.949a1 1 0 0 0 -2 0v1.959a16.726 16.726 0 0 1 -6.61-1.777l.976-1.692a1 1 0 0 0 -1.732-1l-.98 1.7c-.347-.231-.684-.479-1.018-.737l-3.636-6.068a6.993 6.993 0 0 1 -1-3.6 1 1 0 1 0 -2 0 9 9 0 0 0 1.283 4.631l1.087 1.812c-.024.023-.054.042-.077.066a1.831 1.831 0 0 1 -2.586 0 3.832 3.832 0 0 0 -5.414 0 1.79 1.79 0 0 1 -1.007.507l1.431-2.385a9 9 0 0 0 1.283-4.632v-2.784h6a3 3 0 0 0 0-6h-8a3 3 0 0 0 0 6v2.784a6.993 6.993 0 0 1 -1 3.6l-4.3 7.171a4.9 4.9 0 0 0 .163 5.3 2.837 2.837 0 0 1 -.863.145 3 3 0 0 1 -3-3v-16h4a1 1 0 0 0 0-2h-4v-6h8a3 3 0 0 0 0-6h-10a3 3 0 0 0 0 6v24a5.006 5.006 0 0 0 5 5 4.89 4.89 0 0 0 2.47-.677 4.858 4.858 0 0 0 2.446.677h10.168a4.921 4.921 0 0 0 4.916-4.916c0-.125-.016-.248-.025-.373a18.743 18.743 0 0 0 9.025 2.289zm-24-21a1 1 0 0 1 1-1h8a1 1 0 0 1 0 2h-8a1 1 0 0 1 -1-1zm-11-8a1 1 0 0 1 1-1h10a1 1 0 0 1 0 2h-10a1 1 0 0 1 -1-1zm21.084 30h-10.168a2.915 2.915 0 0 1 -2.5-4.416l1.719-2.865a3.792 3.792 0 0 0 3.572-1.012 1.831 1.831 0 0 1 2.586 0 3.834 3.834 0 0 0 5.123.263l2.168 3.614a2.915 2.915 0 0 1 -2.5 4.416z"/><path d="m50.852 25.164a18.959 18.959 0 0 0 -28.852 6.391 1 1 0 1 0 1.791.89c.009-.018.02-.035.029-.053l1.688.974a1 1 0 1 0 1-1.732l-1.685-.973a16.947 16.947 0 0 1 4.825-4.855l.984 1.7a1 1 0 0 0 1.732-1l-.983-1.706a16.891 16.891 0 0 1 6.619-1.765v1.965a1 1 0 0 0 2 0v-1.958a16.71 16.71 0 0 1 6.612 1.774l-.978 1.694a1 1 0 1 0 1.732 1l.98-1.7c.429.284.849.586 1.257.912a1 1 0 1 0 1.249-1.561z"/><circle cx="9" cy="53" r="1"/><circle cx="11" cy="48" r="1"/><circle cx="10" cy="44" r="1"/><circle cx="15" cy="57" r="1"/><circle cx="19" cy="54" r="1"/><circle cx="19" cy="58" r="1"/></g></g></g></svg>
